  0
SECTION
  2
HEADER
  9
$ACADVER
  1
AC1032
  9
$ACADMAINTVER
 90
      228
  9
$DWGCODEPAGE
  3
ANSI_949
  9
$REQUIREDVERSIONS
160
                 0
  9
$INSBASE
 10
0.0
 20
0.0
 30
0.0
  9
$EXTMIN
 10
1.000000000000000E+20
 20
1.000000000000000E+20
 30
1.000000000000000E+20
  9
$EXTMAX
 10
-1.000000000000000E+20
 20
-1.000000000000000E+20
 30
-1.000000000000000E+20
  9
$LIMMIN
 10
0.0
 20
0.0
  9
$LIMMAX
 10
12.0
 20
9.0
  9
$ORTHOMODE
 70
     0
  9
$REGENMODE
 70
     1
  9
$FILLMODE
 70
     1
  9
$QTEXTMODE
 70
     0
  9
$MIRRTEXT
 70
     0
  9
$LTSCALE
 40
1.0
  9
$ATTMODE
 70
     1
  9
$TEXTSIZE
 40
0.2
  9
$TRACEWID
 40
0.05
  9
$TEXTSTYLE
  7
Standard
  9
$CLAYER
  8
0
  9
$CELTYPE
  6
ByLayer
  9
$CECOLOR
 62
   256
  9
$CELTSCALE
 40
1.0
  9
$DISPSILH
 70
     0
  9
$DIMSCALE
 40
1.0
  9
$DIMASZ
 40
0.18
  9
$DIMEXO
 40
0.0625
  9
$DIMDLI
 40
0.38
  9
$DIMRND
 40
0.0
  9
$DIMDLE
 40
0.0
  9
$DIMEXE
 40
0.18
  9
$DIMTP
 40
0.0
  9
$DIMTM
 40
0.0
  9
$DIMTXT
 40
0.18
  9
$DIMCEN
 40
0.09
  9
$DIMTSZ
 40
0.0
  9
$DIMTOL
 70
     0
  9
$DIMLIM
 70
     0
  9
$DIMTIH
 70
     1
  9
$DIMTOH
 70
     1
  9
$DIMSE1
 70
     0
  9
$DIMSE2
 70
     0
  9
$DIMTAD
 70
     0
  9
$DIMZIN
 70
     0
  9
$DIMBLK
  1

  9
$DIMASO
 70
     1
  9
$DIMSHO
 70
     1
  9
$DIMPOST
  1

  9
$DIMAPOST
  1

  9
$DIMALT
 70
     0
  9
$DIMALTD
 70
     2
  9
$DIMALTF
 40
25.4
  9
$DIMLFAC
 40
1.0
  9
$DIMTOFL
 70
     0
  9
$DIMTVP
 40
0.0
  9
$DIMTIX
 70
     0
  9
$DIMSOXD
 70
     0
  9
$DIMSAH
 70
     0
  9
$DIMBLK1
  1

  9
$DIMBLK2
  1

  9
$DIMSTYLE
  2
Standard
  9
$DIMCLRD
 70
     0
  9
$DIMCLRE
 70
     0
  9
$DIMCLRT
 70
     0
  9
$DIMTFAC
 40
1.0
  9
$DIMGAP
 40
0.09
  9
$DIMJUST
 70
     0
  9
$DIMSD1
 70
     0
  9
$DIMSD2
 70
     0
  9
$DIMTOLJ
 70
     1
  9
$DIMTZIN
 70
     0
  9
$DIMALTZ
 70
     0
  9
$DIMALTTZ
 70
     0
  9
$DIMUPT
 70
     0
  9
$DIMDEC
 70
     4
  9
$DIMTDEC
 70
     4
  9
$DIMALTU
 70
     2
  9
$DIMALTTD
 70
     2
  9
$DIMTXSTY
  7
Standard
  9
$DIMAUNIT
 70
     0
  9
$DIMADEC
 70
     0
  9
$DIMALTRND
 40
0.0
  9
$DIMAZIN
 70
     0
  9
$DIMDSEP
 70
    46
  9
$DIMATFIT
 70
     3
  9
$DIMFRAC
 70
     0
  9
$DIMLDRBLK
  1

  9
$DIMLUNIT
 70
     2
  9
$DIMLWD
 70
    -2
  9
$DIMLWE
 70
    -2
  9
$DIMTMOVE
 70
     0
  9
$DIMFXL
 40
1.0
  9
$DIMFXLON
 70
     0
  9
$DIMJOGANG
 40
0.7853981633974483
  9
$DIMTFILL
 70
     0
  9
$DIMTFILLCLR
 70
     0
  9
$DIMARCSYM
 70
     0
  9
$DIMLTYPE
  6

  9
$DIMLTEX1
  6

  9
$DIMLTEX2
  6

  9
$DIMTXTDIRECTION
 70
     0
  9
$LUNITS
 70
     2
  9
$LUPREC
 70
     4
  9
$SKETCHINC
 40
0.1
  9
$FILLETRAD
 40
0.0
  9
$AUNITS
 70
     0
  9
$AUPREC
 70
     0
  9
$MENU
  1
.
  9
$ELEVATION
 40
0.0
  9
$PELEVATION
 40
0.0
  9
$THICKNESS
 40
0.0
  9
$LIMCHECK
 70
     0
  9
$CHAMFERA
 40
0.0
  9
$CHAMFERB
 40
0.0
  9
$CHAMFERC
 40
0.0
  9
$CHAMFERD
 40
0.0
  9
$SKPOLY
 70
     0
  9
$TDCREATE
 40
2460212.699537037
  9
$TDUCREATE
 40
2460212.324537037
  9
$TDUPDATE
 40
2460212.699537037
  9
$TDUUPDATE
 40
2460212.324537037
  9
$TDINDWG
 40
0.0000000000
  9
$TDUSRTIMER
 40
0.0000000000
  9
$USRTIMER
 70
     1
  9
$ANGBASE
 50
0.0
  9
$ANGDIR
 70
     0
  9
$PDMODE
 70
     0
  9
$PDSIZE
 40
0.0
  9
$PLINEWID
 40
0.0
  9
$SPLFRAME
 70
     0
  9
$SPLINETYPE
 70
     6
  9
$SPLINESEGS
 70
     8
  9
$HANDSEED
  5
CA
  9
$SURFTAB1
 70
     6
  9
$SURFTAB2
 70
     6
  9
$SURFTYPE
 70
     6
  9
$SURFU
 70
     6
  9
$SURFV
 70
     6
  9
$UCSBASE
  2

  9
$UCSNAME
  2

  9
$UCSORG
 10
0.0
 20
0.0
 30
0.0
  9
$UCSXDIR
 10
1.0
 20
0.0
 30
0.0
  9
$UCSYDIR
 10
0.0
 20
1.0
 30
0.0
  9
$UCSORTHOREF
  2

  9
$UCSORTHOVIEW
 70
     0
  9
$UCSORGTOP
 10
0.0
 20
0.0
 30
0.0
  9
$UCSORGBOTTOM
 10
0.0
 20
0.0
 30
0.0
  9
$UCSORGLEFT
 10
0.0
 20
0.0
 30
0.0
  9
$UCSORGRIGHT
 10
0.0
 20
0.0
 30
0.0
  9
$UCSORGFRONT
 10
0.0
 20
0.0
 30
0.0
  9
$UCSORGBACK
 10
0.0
 20
0.0
 30
0.0
  9
$PUCSBASE
  2

  9
$PUCSNAME
  2

  9
$PUCSORG
 10
0.0
 20
0.0
 30
0.0
  9
$PUCSXDIR
 10
1.0
 20
0.0
 30
0.0
  9
$PUCSYDIR
 10
0.0
 20
1.0
 30
0.0
  9
$PUCSORTHOREF
  2

  9
$PUCSORTHOVIEW
 70
     0
  9
$PUCSORGTOP
 10
0.0
 20
0.0
 30
0.0
  9
$PUCSORGBOTTOM
 10
0.0
 20
0.0
 30
0.0
  9
$PUCSORGLEFT
 10
0.0
 20
0.0
 30
0.0
  9
$PUCSORGRIGHT
 10
0.0
 20
0.0
 30
0.0
  9
$PUCSORGFRONT
 10
0.0
 20
0.0
 30
0.0
  9
$PUCSORGBACK
 10
0.0
 20
0.0
 30
0.0
  9
$USERI1
 70
     0
  9
$USERI2
 70
     0
  9
$USERI3
 70
     0
  9
$USERI4
 70
     0
  9
$USERI5
 70
     0
  9
$USERR1
 40
0.0
  9
$USERR2
 40
0.0
  9
$USERR3
 40
0.0
  9
$USERR4
 40
0.0
  9
$USERR5
 40
0.0
  9
$WORLDVIEW
 70
     1
  9
$SHADEDGE
 70
     3
  9
$SHADEDIF
 70
    70
  9
$TILEMODE
 70
     1
  9
$MAXACTVP
 70
    64
  9
$PINSBASE
 10
0.0
 20
0.0
 30
0.0
  9
$PLIMCHECK
 70
     0
  9
$PEXTMIN
 10
1.000000000000000E+20
 20
1.000000000000000E+20
 30
1.000000000000000E+20
  9
$PEXTMAX
 10
-1.000000000000000E+20
 20
-1.000000000000000E+20
 30
-1.000000000000000E+20
  9
$PLIMMIN
 10
0.0
 20
0.0
  9
$PLIMMAX
 10
12.0
 20
9.0
  9
$UNITMODE
 70
     0
  9
$VISRETAIN
 70
     1
  9
$PLINEGEN
 70
     0
  9
$PSLTSCALE
 70
     1
  9
$TREEDEPTH
 70
  3020
  9
$CMLSTYLE
  2
Standard
  9
$CMLJUST
 70
     0
  9
$CMLSCALE
 40
1.0
  9
$PROXYGRAPHICS
 70
     1
  9
$MEASUREMENT
 70
     0
  9
$CELWEIGHT
370
    -1
  9
$ENDCAPS
280
     0
  9
$JOINSTYLE
280
     0
  9
$LWDISPLAY
290
     1
  9
$INSUNITS
 70
     0
  9
$HYPERLINKBASE
  1

  9
$STYLESHEET
  1

  9
$XEDIT
290
     1
  9
$CEPSNTYPE
380
     0
  9
$PSTYLEMODE
290
     1
  9
$FINGERPRINTGUID
  2
{C822A90B-CE8C-9E42-A088-2908021500E1}
  9
$VERSIONGUID
  2
{564F104E-CB0D-8346-9576-2DB37540453F}
  9
$EXTNAMES
290
     1
  9
$PSVPSCALE
 40
0.0
  9
$OLESTARTUP
290
     0
  9
$SORTENTS
280
   127
  9
$INDEXCTL
280
     0
  9
$HIDETEXT
280
     1
  9
$XCLIPFRAME
280
     2
  9
$HALOGAP
280
     0
  9
$OBSCOLOR
 70
   257
  9
$OBSLTYPE
280
     0
  9
$INTERSECTIONDISPLAY
280
     0
  9
$INTERSECTIONCOLOR
 70
   257
  9
$DIMASSOC
280
     2
  9
$PROJECTNAME
  1

  9
$CAMERADISPLAY
290
     0
  9
$LENSLENGTH
 40
50.0
  9
$CAMERAHEIGHT
 40
0.0
  9
$STEPSPERSEC
 40
2.0
  9
$STEPSIZE
 40
6.0
  9
$3DDWFPREC
 40
2.0
  9
$PSOLWIDTH
 40
0.25
  9
$PSOLHEIGHT
 40
4.0
  9
$LOFTANG1
 40
1.570796326794896
  9
$LOFTANG2
 40
1.570796326794896
  9
$LOFTMAG1
 40
0.0
  9
$LOFTMAG2
 40
0.0
  9
$LOFTPARAM
 70
     7
  9
$LOFTNORMALS
280
     1
  9
$LATITUDE
 40
37.795
  9
$LONGITUDE
 40
-122.394
  9
$NORTHDIRECTION
 40
0.0
  9
$TIMEZONE
 70
 -8000
  9
$LIGHTGLYPHDISPLAY
280
     1
  9
$TILEMODELIGHTSYNCH
280
     1
  9
$CMATERIAL
347
11
  9
$SOLIDHIST
280
     0
  9
$SHOWHIST
280
     1
  9
$DWFFRAME
280
     2
  9
$DGNFRAME
280
     0
  9
$REALWORLDSCALE
290
     1
  9
$INTERFERECOLOR
 62
     1
  9
$INTERFEREOBJVS
345
33
  9
$INTERFEREVPVS
346
30
  9
$CSHADOW
280
     0
  9
$SHADOWPLANELOCATION
 40
0.0
  0
ENDSEC
  0
SECTION
  2
CLASSES
  0
CLASS
  1
ACDBDICTIONARYWDFLT
  2
AcDbDictionaryWithDefault
  3
ObjectDBX Classes
 90
        0
 91
        1
280
     0
281
     0
  0
CLASS
  1
MATERIAL
  2
AcDbMaterial
  3
ObjectDBX Classes
 90
     1153
 91
        3
280
     0
281
     0
  0
CLASS
  1
VISUALSTYLE
  2
AcDbVisualStyle
  3
ObjectDBX Classes
 90
     4095
 91
       24
280
     0
281
     0
  0
CLASS
  1
SCALE
  2
AcDbScale
  3
ObjectDBX Classes
 90
     1153
 91
       17
280
     0
281
     0
  0
CLASS
  1
TABLESTYLE
  2
AcDbTableStyle
  3
ObjectDBX Classes
 90
     4095
 91
        1
280
     0
281
     0
  0
CLASS
  1
MLEADERSTYLE
  2
AcDbMLeaderStyle
  3
ACDB_MLEADERSTYLE_CLASS
 90
     4095
 91
        1
280
     0
281
     0
  0
CLASS
  1
ACDBSECTIONVIEWSTYLE
  2
AcDbSectionViewStyle
  3
ObjectDBX Classes
 90
     1025
 91
        1
280
     0
281
     0
  0
CLASS
  1
ACDBDETAILVIEWSTYLE
  2
AcDbDetailViewStyle
  3
ObjectDBX Classes
 90
     1025
 91
        1
280
     0
281
     0
  0
CLASS
  1
DICTIONARYVAR
  2
AcDbDictionaryVar
  3
ObjectDBX Classes
 90
        0
 91
        5
280
     0
281
     0
  0
CLASS
  1
CELLSTYLEMAP
  2
AcDbCellStyleMap
  3
ObjectDBX Classes
 90
     1152
 91
        1
280
     0
281
     0
  0
ENDSEC
  0
SECTION
  2
TABLES
  0
TABLE
  2
VPORT
  5
8
330
0
100
AcDbSymbolTable
 70
     1
  0
VPORT
  5
57
330
8
100
AcDbSymbolTableRecord
100
AcDbViewportTableRecord
  2
*Active
 70
     0
 10
0.0
 20
0.0
 11
1.0
 21
1.0
 12
0.0
 22
0.0
 13
0.0
 23
0.0
 14
1.0
 24
1.0
 15
0.0
 25
0.0
 16
0.0
 26
0.0
 36
1.0
 17
52.54933305220129
 27
-31.74201507568614
 37
0.0
 40
73.59070304176552
 41
1.582655892002046
 42
50.0
 43
0.0
 44
0.0
 50
0.0
 51
0.0
 71
     0
 72
   100
 73
     1
 74
     1
 75
     0
 76
     0
 77
     0
 78
     0
281
     0
 65
     1
110
0.0
120
0.0
130
0.0
111
1.0
121
0.0
131
0.0
112
0.0
122
1.0
132
0.0
 79
     0
146
0.0
 60
     3
 61
     5
292
     1
282
     1
141
0.0
142
0.0
 63
   250
421
  3355443
  0
ENDTAB
  0
TABLE
  2
LTYPE
  5
5
330
0
100
AcDbSymbolTable
 70
     1
  0
LTYPE
  5
5B
330
5
100
AcDbSymbolTableRecord
100
AcDbLinetypeTableRecord
  2
ByBlock
 70
     0
  3

 72
    65
 73
     0
 40
0.0
  0
LTYPE
  5
5C
330
5
100
AcDbSymbolTableRecord
100
AcDbLinetypeTableRecord
  2
ByLayer
 70
     0
  3

 72
    65
 73
     0
 40
0.0
  0
LTYPE
  5
5D
330
5
100
AcDbSymbolTableRecord
100
AcDbLinetypeTableRecord
  2
Continuous
 70
     0
  3
Solid line
 72
    65
 73
     0
 40
0.0
  0
ENDTAB
  0
TABLE
  2
LAYER
  5
2
330
0
100
AcDbSymbolTable
 70
     2
  0
LAYER
  5
54
330
2
100
AcDbSymbolTableRecord
100
AcDbLayerTableRecord
  2
0
 70
     0
 62
     7
  6
Continuous
370
    -3
390
F
347
21
348
0
  0
LAYER
  5
78
330
2
100
AcDbSymbolTableRecord
100
AcDbLayerTableRecord
  2
레이어 1
 70
     0
 62
     7
  6
Continuous
370
     0
390
F
347
21
348
0
  0
ENDTAB
  0
TABLE
  2
STYLE
  5
3
330
0
100
AcDbSymbolTable
 70
     2
  0
STYLE
  5
55
330
3
100
AcDbSymbolTableRecord
100
AcDbTextStyleTableRecord
  2
Standard
 70
     0
 40
0.0
 41
1.0
 50
0.0
 71
     0
 42
0.2
  3
txt
  4

  0
STYLE
  5
5A
330
3
100
AcDbSymbolTableRecord
100
AcDbTextStyleTableRecord
  2
Annotative
 70
     0
 40
0.0
 41
1.0
 50
0.0
 71
     0
 42
0.2
  3
txt
  4

1001
AcadAnnotative
1000
AnnotativeData
1002
{
1070
     1
1070
     1
1002
}
  0
ENDTAB
  0
TABLE
  2
VIEW
  5
6
330
0
100
AcDbSymbolTable
 70
     0
  0
ENDTAB
  0
TABLE
  2
UCS
  5
7
330
0
100
AcDbSymbolTable
 70
     0
  0
ENDTAB
  0
TABLE
  2
APPID
  5
9
330
0
100
AcDbSymbolTable
 70
     2
  0
APPID
  5
56
330
9
100
AcDbSymbolTableRecord
100
AcDbRegAppTableRecord
  2
ACAD
 70
     0
  0
APPID
  5
5E
330
9
100
AcDbSymbolTableRecord
100
AcDbRegAppTableRecord
  2
AcadAnnotative
 70
     0
  0
ENDTAB
  0
TABLE
  2
DIMSTYLE
  5
A
330
0
100
AcDbSymbolTable
 70
     2
100
AcDbDimStyleTable
 71
     0
  0
DIMSTYLE
105
58
330
A
100
AcDbSymbolTableRecord
100
AcDbDimStyleTableRecord
  2
Standard
 70
     0
340
55
  0
DIMSTYLE
105
59
330
A
100
AcDbSymbolTableRecord
100
AcDbDimStyleTableRecord
  2
Annotative
 70
     0
340
55
1001
AcadAnnotative
1000
AnnotativeData
1002
{
1070
     1
1070
     1
1002
}
  0
ENDTAB
  0
TABLE
  2
BLOCK_RECORD
  5
1
330
0
100
AcDbSymbolTable
 70
     1
  0
BLOCK_RECORD
  5
70
330
1
100
AcDbSymbolTableRecord
100
AcDbBlockTableRecord
  2
*Model_Space
340
73
 70
     0
280
     1
281
     0
  0
BLOCK_RECORD
  5
6C
330
1
100
AcDbSymbolTableRecord
100
AcDbBlockTableRecord
  2
*Paper_Space
340
6F
 70
     0
280
     1
281
     0
  0
BLOCK_RECORD
  5
74
330
1
100
AcDbSymbolTableRecord
100
AcDbBlockTableRecord
  2
*Paper_Space0
340
77
 70
     0
280
     1
281
     0
  0
ENDTAB
  0
ENDSEC
  0
SECTION
  2
BLOCKS
  0
BLOCK
  5
71
330
70
100
AcDbEntity
  8
0
100
AcDbBlockBegin
  2
*Model_Space
 70
     0
 10
0.0
 20
0.0
 30
0.0
  3
*Model_Space
  1

  0
ENDBLK
  5
72
330
70
100
AcDbEntity
  8
0
100
AcDbBlockEnd
  0
BLOCK
  5
6D
330
6C
100
AcDbEntity
 67
     1
  8
0
100
AcDbBlockBegin
  2
*Paper_Space
 70
     0
 10
0.0
 20
0.0
 30
0.0
  3
*Paper_Space
  1

  0
ENDBLK
  5
6E
330
6C
100
AcDbEntity
 67
     1
  8
0
100
AcDbBlockEnd
  0
BLOCK
  5
75
330
74
100
AcDbEntity
 67
     1
  8
0
100
AcDbBlockBegin
  2
*Paper_Space0
 70
     0
 10
0.0
 20
0.0
 30
0.0
  3
*Paper_Space0
  1

  0
ENDBLK
  5
76
330
74
100
AcDbEntity
 67
     1
  8
0
100
AcDbBlockEnd
  0
ENDSEC
  0
SECTION
  2
ENTITIES
  0
SPLINE
  5
79
330
70
100
AcDbEntity
  8
레이어 1
 62
   250
420
  2299925
370
     9
100
AcDbSpline
210
0.0
220
0.0
230
1.0
 70
     9
 71
     3
 72
   158
 73
   154
 74
     0
 42
0.0000000001
 43
0.0000000001
 40
0.0
 40
0.0
 40
0.0
 40
0.0
 40
1.0
 40
1.0
 40
1.0
 40
2.0
 40
2.0
 40
2.0
 40
3.0
 40
3.0
 40
3.0
 40
4.0
 40
4.0
 40
4.0
 40
5.0
 40
5.0
 40
5.0
 40
6.0
 40
6.0
 40
6.0
 40
7.0
 40
7.0
 40
7.0
 40
8.0
 40
8.0
 40
8.0
 40
9.0
 40
9.0
 40
9.0
 40
10.0
 40
10.0
 40
10.0
 40
11.0
 40
11.0
 40
11.0
 40
12.0
 40
12.0
 40
12.0
 40
13.0
 40
13.0
 40
13.0
 40
14.0
 40
14.0
 40
14.0
 40
15.0
 40
15.0
 40
15.0
 40
16.0
 40
16.0
 40
16.0
 40
17.0
 40
17.0
 40
17.0
 40
18.0
 40
18.0
 40
18.0
 40
19.0
 40
19.0
 40
19.0
 40
20.0
 40
20.0
 40
20.0
 40
21.0
 40
21.0
 40
21.0
 40
22.0
 40
22.0
 40
22.0
 40
23.0
 40
23.0
 40
23.0
 40
24.0
 40
24.0
 40
24.0
 40
25.0
 40
25.0
 40
25.0
 40
26.0
 40
26.0
 40
26.0
 40
27.0
 40
27.0
 40
27.0
 40
28.0
 40
28.0
 40
28.0
 40
29.0
 40
29.0
 40
29.0
 40
30.0
 40
30.0
 40
30.0
 40
31.0
 40
31.0
 40
31.0
 40
32.0
 40
32.0
 40
32.0
 40
33.0
 40
33.0
 40
33.0
 40
34.0
 40
34.0
 40
34.0
 40
35.0
 40
35.0
 40
35.0
 40
36.0
 40
36.0
 40
36.0
 40
37.0
 40
37.0
 40
37.0
 40
38.0
 40
38.0
 40
38.0
 40
39.0
 40
39.0
 40
39.0
 40
40.0
 40
40.0
 40
40.0
 40
41.0
 40
41.0
 40
41.0
 40
42.0
 40
42.0
 40
42.0
 40
43.0
 40
43.0
 40
43.0
 40
44.0
 40
44.0
 40
44.0
 40
45.0
 40
45.0
 40
45.0
 40
46.0
 40
46.0
 40
46.0
 40
47.0
 40
47.0
 40
47.0
 40
48.0
 40
48.0
 40
48.0
 40
49.0
 40
49.0
 40
49.0
 40
50.0
 40
50.0
 40
50.0
 40
51.0
 40
51.0
 40
51.0
 40
51.0
 10
100.1895751953125
 20
-17.60552978515625
 30
0.0
 10
100.1895751953125
 20
-17.60552978515625
 30
0.0
 10
100.1895751953125
 20
-16.41815185546875
 30
0.0
 10
100.1895751953125
 20
-16.41815185546875
 30
0.0
 10
98.05072021484376
 20
-16.41815185546875
 30
0.0
 10
96.31683349609375
 20
-14.68426513671875
 30
0.0
 10
96.31683349609375
 20
-12.54541015625
 30
0.0
 10
96.31683349609375
 20
-12.54541015625
 30
0.0
 10
3.87274169921875
 20
-12.54541015625
 30
0.0
 10
3.87274169921875
 20
-12.54541015625
 30
0.0
 10
3.87274169921875
 20
-14.68426513671875
 30
0.0
 10
2.13885498046875
 20
-16.41815185546875
 30
0.0
 10
0.0
 20
-16.41815185546875
 30
0.0
 10
0.0
 20
-16.41815185546875
 30
0.0
 10
0.0
 20
-17.524169921875
 30
0.0
 10
0.0
 20
-17.524169921875
 30
0.0
 10
0.68927001953125
 20
-17.524169921875
 30
0.0
 10
1.248046875
 20
-18.08294677734375
 30
0.0
 10
1.248046875
 20
-18.77227783203125
 30
0.0
 10
1.248046875
 20
-19.4615478515625
 30
0.0
 10
0.68927001953125
 20
-20.02032470703125
 30
0.0
 10
0.0
 20
-20.02032470703125
 30
0.0
 10
0.0
 20
-20.02032470703125
 30
0.0
 10
0.0
 20
-21.8878173828125
 30
0.0
 10
0.0
 20
-21.8878173828125
 30
0.0
 10
0.68927001953125
 20
-21.8878173828125
 30
0.0
 10
1.248046875
 20
-22.44659423828125
 30
0.0
 10
1.248046875
 20
-23.1358642578125
 30
0.0
 10
1.248046875
 20
-23.8251953125
 30
0.0
 10
0.68927001953125
 20
-24.38397216796875
 30
0.0
 10
0.0
 20
-24.38397216796875
 30
0.0
 10
0.0
 20
-24.38397216796875
 30
0.0
 10
0.0
 20
-26.28729248046875
 30
0.0
 10
0.0
 20
-26.28729248046875
 30
0.0
 10
0.68927001953125
 20
-26.28729248046875
 30
0.0
 10
1.248046875
 20
-26.8460693359375
 30
0.0
 10
1.248046875
 20
-27.53533935546875
 30
0.0
 10
1.248046875
 20
-28.224609375
 30
0.0
 10
0.68927001953125
 20
-28.78338623046875
 30
0.0
 10
0.0
 20
-28.78338623046875
 30
0.0
 10
0.0
 20
-28.78338623046875
 30
0.0
 10
0.0
 20
-30.68670654296875
 30
0.0
 10
0.0
 20
-30.68670654296875
 30
0.0
 10
0.68927001953125
 20
-30.68670654296875
 30
0.0
 10
1.248046875
 20
-31.2454833984375
 30
0.0
 10
1.248046875
 20
-31.934814453125
 30
0.0
 10
1.248046875
 20
-32.62408447265625
 30
0.0
 10
0.68927001953125
 20
-33.182861328125
 30
0.0
 10
0.0
 20
-33.182861328125
 30
0.0
 10
0.0
 20
-33.182861328125
 30
0.0
 10
0.0
 20
-35.0765380859375
 30
0.0
 10
0.0
 20
-35.0765380859375
 30
0.0
 10
0.68927001953125
 20
-35.0765380859375
 30
0.0
 10
1.248046875
 20
-35.63531494140625
 30
0.0
 10
1.248046875
 20
-36.3245849609375
 30
0.0
 10
1.248046875
 20
-37.013916015625
 30
0.0
 10
0.68927001953125
 20
-37.57269287109375
 30
0.0
 10
0.0
 20
-37.57269287109375
 30
0.0
 10
0.0
 20
-37.57269287109375
 30
0.0
 10
0.0
 20
-38.80084228515625
 30
0.0
 10
0.0
 20
-38.80084228515625
 30
0.0
 10
0.68927001953125
 20
-38.80084228515625
 30
0.0
 10
1.248046875
 20
-39.359619140625
 30
0.0
 10
1.248046875
 20
-40.04888916015625
 30
0.0
 10
1.248046875
 20
-40.7381591796875
 30
0.0
 10
0.68927001953125
 20
-41.29693603515625
 30
0.0
 10
0.0
 20
-41.29693603515625
 30
0.0
 10
0.0
 20
-41.29693603515625
 30
0.0
 10
0.0
 20
-42.52508544921875
 30
0.0
 10
0.0
 20
-42.52508544921875
 30
0.0
 10
0.68927001953125
 20
-42.52508544921875
 30
0.0
 10
1.248046875
 20
-43.0838623046875
 30
0.0
 10
1.248046875
 20
-43.773193359375
 30
0.0
 10
1.248046875
 20
-44.46246337890625
 30
0.0
 10
0.68927001953125
 20
-45.021240234375
 30
0.0
 10
0.0
 20
-45.021240234375
 30
0.0
 10
0.0
 20
-45.021240234375
 30
0.0
 10
0.0
 20
-46.12725830078125
 30
0.0
 10
0.0
 20
-46.12725830078125
 30
0.0
 10
2.13885498046875
 20
-46.12725830078125
 30
0.0
 10
3.87274169921875
 20
-47.86114501953124
 30
0.0
 10
3.87274169921875
 20
-50.0
 30
0.0
 10
3.87274169921875
 20
-50.02490234375
 30
0.0
 10
3.86590576171875
 20
-50.04791259765625
 30
0.0
 10
3.86541748046875
 20
-50.07269287109375
 30
0.0
 10
3.86541748046875
 20
-50.07269287109375
 30
0.0
 10
96.31683349609375
 20
-50.07269287109375
 30
0.0
 10
96.31683349609375
 20
-50.07269287109375
 30
0.0
 10
96.31683349609375
 20
-47.933837890625
 30
0.0
 10
98.05072021484376
 20
-46.20001220703125
 30
0.0
 10
100.1895751953125
 20
-46.20001220703125
 30
0.0
 10
100.1895751953125
 20
-46.20001220703125
 30
0.0
 10
100.1895751953125
 20
-45.10260009765625
 30
0.0
 10
100.1895751953125
 20
-45.10260009765625
 30
0.0
 10
99.50030517578126
 20
-45.10260009765625
 30
0.0
 10
98.94152832031251
 20
-44.5438232421875
 30
0.0
 10
98.94152832031251
 20
-43.85455322265625
 30
0.0
 10
98.94152832031251
 20
-43.16522216796875
 30
0.0
 10
99.50030517578126
 20
-42.6064453125
 30
0.0
 10
100.1895751953125
 20
-42.6064453125
 30
0.0
 10
100.1895751953125
 20
-42.6064453125
 30
0.0
 10
100.1895751953125
 20
-41.37829589843749
 30
0.0
 10
100.1895751953125
 20
-41.37829589843749
 30
0.0
 10
99.50030517578126
 20
-41.37829589843749
 30
0.0
 10
98.94152832031251
 20
-40.81951904296874
 30
0.0
 10
98.94152832031251
 20
-40.1302490234375
 30
0.0
 10
98.94152832031251
 20
-39.44097900390625
 30
0.0
 10
99.50030517578126
 20
-38.8822021484375
 30
0.0
 10
100.1895751953125
 20
-38.8822021484375
 30
0.0
 10
100.1895751953125
 20
-38.8822021484375
 30
0.0
 10
100.1895751953125
 20
-37.654052734375
 30
0.0
 10
100.1895751953125
 20
-37.654052734375
 30
0.0
 10
99.50030517578126
 20
-37.654052734375
 30
0.0
 10
98.94152832031251
 20
-37.09527587890625
 30
0.0
 10
98.94152832031251
 20
-36.40594482421875
 30
0.0
 10
98.94152832031251
 20
-35.7166748046875
 30
0.0
 10
99.50030517578126
 20
-35.15789794921875
 30
0.0
 10
100.1895751953125
 20
-35.15789794921875
 30
0.0
 10
100.1895751953125
 20
-35.15789794921875
 30
0.0
 10
100.1895751953125
 20
-33.26422119140625
 30
0.0
 10
100.1895751953125
 20
-33.26422119140625
 30
0.0
 10
99.50030517578126
 20
-33.26422119140625
 30
0.0
 10
98.94152832031251
 20
-32.7054443359375
 30
0.0
 10
98.94152832031251
 20
-32.01617431640625
 30
0.0
 10
98.94152832031251
 20
-31.32684326171875
 30
0.0
 10
99.50030517578126
 20
-30.76806640625
 30
0.0
 10
100.1895751953125
 20
-30.76806640625
 30
0.0
 10
100.1895751953125
 20
-30.76806640625
 30
0.0
 10
100.1895751953125
 20
-28.86474609375
 30
0.0
 10
100.1895751953125
 20
-28.86474609375
 30
0.0
 10
99.50030517578126
 20
-28.86474609375
 30
0.0
 10
98.94152832031251
 20
-28.30596923828125
 30
0.0
 10
98.94152832031251
 20
-27.61669921875
 30
0.0
 10
98.94152832031251
 20
-26.92742919921875
 30
0.0
 10
99.50030517578126
 20
-26.36865234375
 30
0.0
 10
100.1895751953125
 20
-26.36865234375
 30
0.0
 10
100.1895751953125
 20
-26.36865234375
 30
0.0
 10
100.1895751953125
 20
-24.46533203125
 30
0.0
 10
100.1895751953125
 20
-24.46533203125
 30
0.0
 10
99.50030517578126
 20
-24.46533203125
 30
0.0
 10
98.94152832031251
 20
-23.90655517578125
 30
0.0
 10
98.94152832031251
 20
-23.21722412109375
 30
0.0
 10
98.94152832031251
 20
-22.5279541015625
 30
0.0
 10
99.50030517578126
 20
-21.96917724609375
 30
0.0
 10
100.1895751953125
 20
-21.96917724609375
 30
0.0
 10
100.1895751953125
 20
-21.96917724609375
 30
0.0
 10
100.1895751953125
 20
-20.1016845703125
 30
0.0
 10
100.1895751953125
 20
-20.1016845703125
 30
0.0
 10
99.50030517578126
 20
-20.1016845703125
 30
0.0
 10
98.94152832031251
 20
-19.54290771484375
 30
0.0
 10
98.94152832031251
 20
-18.85357666015625
 30
0.0
 10
98.94152832031251
 20
-18.164306640625
 30
0.0
 10
99.50030517578126
 20
-17.60552978515625
 30
0.0
 10
100.1895751953125
 20
-17.60552978515625
 30
0.0
  0
LWPOLYLINE
  5
7A
330
70
100
AcDbEntity
  8
레이어 1
100
AcDbPolyline
 90
       10
 70
     1
 43
0.0
 10
36.55138539635209
 20
-39.09906730842886
 10
34.16894312516252
 20
-39.22026246427595
 10
32.91813789388198
 20
-41.25156887020421
 10
32.06665930125382
 20
-39.02318298628415
 10
29.74825203418732
 20
-38.46130472067307
 10
31.60445159444043
 20
-36.96289134851213
 10
31.42240233490793
 20
-34.58432507689759
 10
33.42107534567549
 20
-35.88664056762536
 10
35.62696998272441
 20
-34.97848403288481
 10
35.00601827552237
 20
-37.28177264239093
  0
HATCH
  5
7B
330
70
100
AcDbEntity
  8
레이어 1
 62
     7
420
 16776403
440
 33554687
100
AcDbHatch
 10
0.0
 20
0.0
 30
0.0
210
0.0
220
0.0
230
1.0
  2
SOLID
 70
     1
 71
     1
 91
        1
 92
        1
 93
       10
 72
     1
 10
36.55138539635209
 20
-39.09906730842886
 11
34.16894312516252
 21
-39.22026246427595
 72
     1
 10
34.16894312516252
 20
-39.22026246427595
 11
32.91813789388198
 21
-41.25156887020421
 72
     1
 10
32.91813789388198
 20
-41.25156887020421
 11
32.06665930125382
 21
-39.02318298628415
 72
     1
 10
32.06665930125382
 20
-39.02318298628415
 11
29.74825203418732
 21
-38.46130472067307
 72
     1
 10
29.74825203418732
 20
-38.46130472067307
 11
31.60445159444043
 21
-36.96289134851213
 72
     1
 10
31.60445159444043
 20
-36.96289134851213
 11
31.42240233490793
 21
-34.58432507689759
 72
     1
 10
31.42240233490793
 20
-34.58432507689759
 11
33.42107534567549
 21
-35.88664056762536
 72
     1
 10
33.42107534567549
 20
-35.88664056762536
 11
35.62696998272441
 21
-34.97848403288481
 72
     1
 10
35.62696998272441
 20
-34.97848403288481
 11
35.00601827552237
 21
-37.28177264239093
 72
     1
 10
35.00601827552237
 20
-37.28177264239093
 11
36.55138539635209
 21
-39.09906730842886
 97
        1
330
7A
 75
     2
 76
     1
 98
        1
 10
0.0
 20
0.0
450
        0
451
        0
460
0.0
461
0.0
452
        0
462
0.0
453
        0
470

  0
LWPOLYLINE
  5
7C
330
70
100
AcDbEntity
  8
레이어 1
100
AcDbPolyline
 90
       10
 70
     1
 43
0.0
 10
41.62411739632261
 20
-33.24061852896011
 10
39.23002269127574
 20
-33.3624064456726
 10
37.97309981953731
 20
-35.40364789339401
 10
37.11745667773994
 20
-33.16436305950447
 10
34.78771016956671
 20
-32.59973666882797
 10
36.65298833074303
 20
-31.09399461427893
 10
36.47004867525811
 20
-28.70379486617276
 10
38.47849711913568
 20
-30.0124799320638
 10
40.6951807023288
 20
-29.09988163851085
 10
40.07119194412098
 20
-31.41443554434591
  0
HATCH
  5
7D
330
70
100
AcDbEntity
  8
레이어 1
 62
     7
420
 16776403
440
 33554687
100
AcDbHatch
 10
0.0
 20
0.0
 30
0.0
210
0.0
220
0.0
230
1.0
  2
SOLID
 70
     1
 71
     1
 91
        1
 92
        1
 93
       10
 72
     1
 10
41.62411739632261
 20
-33.24061852896011
 11
39.23002269127574
 21
-33.3624064456726
 72
     1
 10
39.23002269127574
 20
-33.3624064456726
 11
37.97309981953731
 21
-35.40364789339401
 72
     1
 10
37.97309981953731
 20
-35.40364789339401
 11
37.11745667773994
 21
-33.16436305950447
 72
     1
 10
37.11745667773994
 20
-33.16436305950447
 11
34.78771016956671
 21
-32.59973666882797
 72
     1
 10
34.78771016956671
 20
-32.59973666882797
 11
36.65298833074303
 21
-31.09399461427893
 72
     1
 10
36.65298833074303
 20
-31.09399461427893
 11
36.47004867525811
 21
-28.70379486617276
 72
     1
 10
36.47004867525811
 20
-28.70379486617276
 11
38.47849711913568
 21
-30.0124799320638
 72
     1
 10
38.47849711913568
 20
-30.0124799320638
 11
40.6951807023288
 21
-29.09988163851085
 72
     1
 10
40.6951807023288
 20
-29.09988163851085
 11
40.07119194412098
 21
-31.41443554434591
 72
     1
 10
40.07119194412098
 20
-31.41443554434591
 11
41.62411739632261
 21
-33.24061852896011
 97
        1
330
7C
 75
     2
 76
     1
 98
        1
 10
0.0
 20
0.0
450
        0
451
        0
460
0.0
461
0.0
452
        0
462
0.0
453
        0
470

  0
LWPOLYLINE
  5
7E
330
70
100
AcDbEntity
  8
레이어 1
100
AcDbPolyline
 90
       10
 70
     1
 43
0.0
 10
49.51258251277886
 20
-33.7380893020727
 10
47.11848780773197
 20
-33.85987721878155
 10
45.86156493599355
 20
-35.90111866650477
 10
45.00592179419618
 20
-33.66183383261523
 10
42.67617528602295
 20
-33.0972074419351
 10
44.54145344719927
 20
-31.59146538738787
 10
44.35851379171436
 20
-29.20126563928352
 10
46.36696223559193
 20
-30.50995070517092
 10
48.58364581878504
 20
-29.59735241161798
 10
47.95965706057723
 20
-31.91190631745667
  0
HATCH
  5
7F
330
70
100
AcDbEntity
  8
레이어 1
 62
     7
420
 16776403
440
 33554687
100
AcDbHatch
 10
0.0
 20
0.0
 30
0.0
210
0.0
220
0.0
230
1.0
  2
SOLID
 70
     1
 71
     1
 91
        1
 92
        1
 93
       10
 72
     1
 10
49.51258251277886
 20
-33.7380893020727
 11
47.11848780773197
 21
-33.85987721878155
 72
     1
 10
47.11848780773197
 20
-33.85987721878155
 11
45.86156493599355
 21
-35.90111866650477
 72
     1
 10
45.86156493599355
 20
-35.90111866650477
 11
45.00592179419618
 21
-33.66183383261523
 72
     1
 10
45.00592179419618
 20
-33.66183383261523
 11
42.67617528602295
 21
-33.0972074419351
 72
     1
 10
42.67617528602295
 20
-33.0972074419351
 11
44.54145344719927
 21
-31.59146538738787
 72
     1
 10
44.54145344719927
 20
-31.59146538738787
 11
44.35851379171436
 21
-29.20126563928352
 72
     1
 10
44.35851379171436
 20
-29.20126563928352
 11
46.36696223559193
 21
-30.50995070517092
 72
     1
 10
46.36696223559193
 20
-30.50995070517092
 11
48.58364581878504
 21
-29.59735241161798
 72
     1
 10
48.58364581878504
 20
-29.59735241161798
 11
47.95965706057723
 21
-31.91190631745667
 72
     1
 10
47.95965706057723
 20
-31.91190631745667
 11
49.51258251277886
 21
-33.7380893020727
 97
        1
330
7E
 75
     2
 76
     1
 98
        1
 10
0.0
 20
0.0
450
        0
451
        0
460
0.0
461
0.0
452
        0
462
0.0
453
        0
470

  0
MTEXT
  5
80
330
70
100
AcDbEntity
  8
레이어 1
100
AcDbMText
 10
35.99715805053711
 20
-38.45426261425018
 30
0.0
 40
0.2
 41
0.0
 46
0.0
 71
     7
 72
     1
  1
\C250;\c1382435;\FAdobe Myungjo Std M|b0|i0|c129;\H4.956000;\W1.000000;10,000원
 73
     1
 44
1.0
  0
MTEXT
  5
81
330
70
100
AcDbEntity
  8
레이어 1
100
AcDbMText
 10
31.05429887771606
 20
-26.40553188323975
 30
0.0
 40
0.2
 41
0.0
 46
0.0
 71
     7
 72
     1
  1
\C250;\c1382435;\FAdobe Myungjo Std M|b0|i0|c129;\H3.540000;\W1.000000;첫 구매 할인 쿠폰
 73
     1
 44
1.0
  0
SPLINE
  5
82
330
70
100
AcDbEntity
  8
레이어 1
 62
   250
420
  2299925
370
     9
100
AcDbSpline
210
0.0
220
0.0
230
1.0
 70
     9
 71
     3
 72
    20
 73
    16
 74
     0
 42
0.0000000001
 43
0.0000000001
 40
0.0
 40
0.0
 40
0.0
 40
0.0
 40
1.0
 40
1.0
 40
1.0
 40
2.0
 40
2.0
 40
2.0
 40
3.0
 40
3.0
 40
3.0
 40
4.0
 40
4.0
 40
4.0
 40
5.0
 40
5.0
 40
5.0
 40
5.0
 10
105.6441206498566
 20
-52.30910311612205
 30
0.0
 10
105.6441206498566
 20
-52.30910311612205
 30
0.0
 10
105.6441206498566
 20
-56.18178378018455
 30
0.0
 10
105.6441206498566
 20
-56.18178378018455
 30
0.0
 10
105.6441206498566
 20
-56.18178378018455
 30
0.0
 10
101.7713789506379
 20
-56.18178378018455
 30
0.0
 10
101.7713789506379
 20
-56.18178378018455
 30
0.0
 10
101.7713789506379
 20
-58.32063876065331
 30
0.0
 10
103.5052656693879
 20
-60.05452547940331
 30
0.0
 10
105.6441206498566
 20
-60.05452547940331
 30
0.0
 10
107.7829756303254
 20
-60.05452547940331
 30
0.0
 10
109.5168623490754
 20
-58.32063876065331
 30
0.0
 10
109.5168623490754
 20
-56.18178378018455
 30
0.0
 10
109.5168623490754
 20
-54.04292879971581
 30
0.0
 10
107.7829756303254
 20
-52.30910311612205
 30
0.0
 10
105.6441206498566
 20
-52.30910311612205
 30
0.0
  0
HATCH
  5
83
330
70
100
AcDbEntity
  8
레이어 1
 62
     7
420
 16508655
440
 33554687
100
AcDbHatch
 10
0.0
 20
0.0
 30
0.0
210
0.0
220
0.0
230
1.0
  2
SOLID
 70
     1
 71
     1
 91
        1
 92
        1
 93
        1
 72
     4
 94
        3
 73
     0
 74
     0
 95
       20
 96
       16
 40
0.0
 40
0.0
 40
0.0
 40
0.0
 40
1.0
 40
1.0
 40
1.0
 40
2.0
 40
2.0
 40
2.0
 40
3.0
 40
3.0
 40
3.0
 40
4.0
 40
4.0
 40
4.0
 40
5.0
 40
5.0
 40
5.0
 40
5.0
 10
105.6441206498566
 20
-52.30910311612205
 10
105.6441206498566
 20
-52.30910311612205
 10
105.6441206498566
 20
-56.18178378018455
 10
105.6441206498566
 20
-56.18178378018455
 10
105.6441206498566
 20
-56.18178378018455
 10
101.7713789506379
 20
-56.18178378018455
 10
101.7713789506379
 20
-56.18178378018455
 10
101.7713789506379
 20
-58.32063876065331
 10
103.5052656693879
 20
-60.05452547940331
 10
105.6441206498566
 20
-60.05452547940331
 10
107.7829756303254
 20
-60.05452547940331
 10
109.5168623490754
 20
-58.32063876065331
 10
109.5168623490754
 20
-56.18178378018455
 10
109.5168623490754
 20
-54.04292879971581
 10
107.7829756303254
 20
-52.30910311612205
 10
105.6441206498566
 20
-52.30910311612205
 97
        0
 97
        1
330
82
 75
     2
 76
     1
 98
        1
 10
0.0
 20
0.0
450
        0
451
        0
460
0.0
461
0.0
452
        0
462
0.0
453
        0
470

  0
SPLINE
  5
84
330
70
100
AcDbEntity
  8
레이어 1
 62
   250
420
  2299925
370
     9
100
AcDbSpline
210
0.0
220
0.0
230
1.0
 70
     9
 71
     3
 72
    14
 73
    10
 74
     0
 42
0.0000000001
 43
0.0000000001
 40
0.0
 40
0.0
 40
0.0
 40
0.0
 40
1.0
 40
1.0
 40
1.0
 40
2.0
 40
2.0
 40
2.0
 40
3.0
 40
3.0
 40
3.0
 40
3.0
 10
102.1259460449218
 20
-56.18181429776268
 30
0.0
 10
99.98709106445312
 20
-56.18181429776268
 30
0.0
 10
98.25320434570313
 20
-57.91563998135643
 30
0.0
 10
98.25320434570313
 20
-60.05449496182518
 30
0.0
 10
98.25320434570313
 20
-60.05449496182518
 30
0.0
 10
102.1259460449218
 20
-60.05449496182518
 30
0.0
 10
102.1259460449218
 20
-60.05449496182518
 30
0.0
 10
102.1259460449218
 20
-60.05449496182518
 30
0.0
 10
102.1259460449218
 20
-56.18181429776268
 30
0.0
 10
102.1259460449218
 20
-56.18181429776268
 30
0.0
  0
HATCH
  5
85
330
70
100
AcDbEntity
  8
레이어 1
 62
     7
420
 16508655
440
 33554687
100
AcDbHatch
 10
0.0
 20
0.0
 30
0.0
210
0.0
220
0.0
230
1.0
  2
SOLID
 70
     1
 71
     1
 91
        1
 92
        1
 93
        1
 72
     4
 94
        3
 73
     0
 74
     0
 95
       14
 96
       10
 40
0.0
 40
0.0
 40
0.0
 40
0.0
 40
1.0
 40
1.0
 40
1.0
 40
2.0
 40
2.0
 40
2.0
 40
3.0
 40
3.0
 40
3.0
 40
3.0
 10
102.1259460449218
 20
-56.18181429776268
 10
99.98709106445312
 20
-56.18181429776268
 10
98.25320434570313
 20
-57.91563998135643
 10
98.25320434570313
 20
-60.05449496182518
 10
98.25320434570313
 20
-60.05449496182518
 10
102.1259460449218
 20
-60.05449496182518
 10
102.1259460449218
 20
-60.05449496182518
 10
102.1259460449218
 20
-60.05449496182518
 10
102.1259460449218
 20
-56.18181429776268
 10
102.1259460449218
 20
-56.18181429776268
 97
        0
 97
        1
330
84
 75
     2
 76
     1
 98
        1
 10
0.0
 20
0.0
450
        0
451
        0
460
0.0
461
0.0
452
        0
462
0.0
453
        0
470

  0
SPLINE
  5
86
330
70
100
AcDbEntity
  8
레이어 1
 62
   250
420
  2299925
370
     9
100
AcDbSpline
210
0.0
220
0.0
230
1.0
 70
     9
 71
     3
 72
    20
 73
    16
 74
     0
 42
0.0000000001
 43
0.0000000001
 40
0.0
 40
0.0
 40
0.0
 40
0.0
 40
1.0
 40
1.0
 40
1.0
 40
2.0
 40
2.0
 40
2.0
 40
3.0
 40
3.0
 40
3.0
 40
4.0
 40
4.0
 40
4.0
 40
5.0
 40
5.0
 40
5.0
 40
5.0
 10
-0.5454545454540494
 20
-59.94540571732978
 30
0.0
 10
-2.684309525922799
 20
-59.94540571732978
 30
0.0
 10
-4.418196244672799
 20
-61.67929243607978
 30
0.0
 10
-4.418196244672799
 20
-63.81814741654853
 30
0.0
 10
-4.418196244672799
 20
-65.95700239701727
 30
0.0
 10
-2.684309525922799
 20
-67.69088911576727
 30
0.0
 10
-0.5454545454540494
 20
-67.69088911576727
 30
0.0
 10
1.5684980912647
 20
-67.69088911576727
 30
0.0
 10
3.28022904829595
 20
-65.99533247514227
 30
0.0
 10
3.3199629350147
 20
-63.89084028764227
 30
0.0
 10
3.3199629350147
 20
-63.89084028764227
 30
0.0
 10
-0.5454545454540494
 20
-63.89084028764227
 30
0.0
 10
-0.5454545454540494
 20
-63.89084028764227
 30
0.0
 10
-0.5454545454540494
 20
-63.89084028764227
 30
0.0
 10
-0.5454545454540494
 20
-59.94540571732978
 30
0.0
 10
-0.5454545454540494
 20
-59.94540571732978
 30
0.0
  0
HATCH
  5
87
330
70
100
AcDbEntity
  8
레이어 1
 62
     7
420
 16508655
440
 33554687
100
AcDbHatch
 10
0.0
 20
0.0
 30
0.0
210
0.0
220
0.0
230
1.0
  2
SOLID
 70
     1
 71
     1
 91
        1
 92
        1
 93
        1
 72
     4
 94
        3
 73
     0
 74
     0
 95
       20
 96
       16
 40
0.0
 40
0.0
 40
0.0
 40
0.0
 40
1.0
 40
1.0
 40
1.0
 40
2.0
 40
2.0
 40
2.0
 40
3.0
 40
3.0
 40
3.0
 40
4.0
 40
4.0
 40
4.0
 40
5.0
 40
5.0
 40
5.0
 40
5.0
 10
-0.5454545454540494
 20
-59.94540571732978
 10
-2.684309525922799
 20
-59.94540571732978
 10
-4.418196244672799
 20
-61.67929243607978
 10
-4.418196244672799
 20
-63.81814741654853
 10
-4.418196244672799
 20
-65.95700239701727
 10
-2.684309525922799
 20
-67.69088911576727
 10
-0.5454545454540494
 20
-67.69088911576727
 10
1.5684980912647
 20
-67.69088911576727
 10
3.28022904829595
 20
-65.99533247514227
 10
3.3199629350147
 20
-63.89084028764227
 10
3.3199629350147
 20
-63.89084028764227
 10
-0.5454545454540494
 20
-63.89084028764227
 10
-0.5454545454540494
 20
-63.89084028764227
 10
-0.5454545454540494
 20
-63.89084028764227
 10
-0.5454545454540494
 20
-59.94540571732978
 10
-0.5454545454540494
 20
-59.94540571732978
 97
        0
 97
        1
330
86
 75
     2
 76
     1
 98
        1
 10
0.0
 20
0.0
450
        0
451
        0
460
0.0
461
0.0
452
        0
462
0.0
453
        0
470

  0
SPLINE
  5
88
330
70
100
AcDbEntity
  8
레이어 1
 62
   250
420
  2299925
370
     9
100
AcDbSpline
210
0.0
220
0.0
230
1.0
 70
     9
 71
     3
 72
    17
 73
    13
 74
     0
 42
0.0000000001
 43
0.0000000001
 40
0.0
 40
0.0
 40
0.0
 40
0.0
 40
1.0
 40
1.0
 40
1.0
 40
2.0
 40
2.0
 40
2.0
 40
3.0
 40
3.0
 40
3.0
 40
4.0
 40
4.0
 40
4.0
 40
4.0
 10
1.936370849609375
 20
-59.87271284623602
 30
0.0
 10
1.936370849609375
 20
-59.87271284623602
 30
0.0
 10
1.936370849609375
 20
-63.81814741654853
 30
0.0
 10
1.936370849609375
 20
-63.81814741654853
 30
0.0
 10
1.936370849609375
 20
-63.81814741654853
 30
0.0
 10
5.801788330078125
 20
-63.81814741654853
 30
0.0
 10
5.801788330078125
 20
-63.81814741654853
 30
0.0
 10
5.802276611328125
 20
-63.79336714311103
 30
0.0
 10
5.809112548828125
 20
-63.77035688920478
 30
0.0
 10
5.809112548828125
 20
-63.74545454545478
 30
0.0
 10
5.809112548828125
 20
-61.60659956498602
 30
0.0
 10
4.075225830078125
 20
-59.87271284623602
 30
0.0
 10
1.936370849609375
 20
-59.87271284623602
 30
0.0
  0
HATCH
  5
89
330
70
100
AcDbEntity
  8
레이어 1
 62
     7
420
 16508655
440
 33554687
100
AcDbHatch
 10
0.0
 20
0.0
 30
0.0
210
0.0
220
0.0
230
1.0
  2
SOLID
 70
     1
 71
     1
 91
        1
 92
        1
 93
        1
 72
     4
 94
        3
 73
     0
 74
     0
 95
       17
 96
       13
 40
0.0
 40
0.0
 40
0.0
 40
0.0
 40
1.0
 40
1.0
 40
1.0
 40
2.0
 40
2.0
 40
2.0
 40
3.0
 40
3.0
 40
3.0
 40
4.0
 40
4.0
 40
4.0
 40
4.0
 10
1.936370849609375
 20
-59.87271284623602
 10
1.936370849609375
 20
-59.87271284623602
 10
1.936370849609375
 20
-63.81814741654853
 10
1.936370849609375
 20
-63.81814741654853
 10
1.936370849609375
 20
-63.81814741654853
 10
5.801788330078125
 20
-63.81814741654853
 10
5.801788330078125
 20
-63.81814741654853
 10
5.802276611328125
 20
-63.79336714311103
 10
5.809112548828125
 20
-63.77035688920478
 10
5.809112548828125
 20
-63.74545454545478
 10
5.809112548828125
 20
-61.60659956498602
 10
4.075225830078125
 20
-59.87271284623602
 10
1.936370849609375
 20
-59.87271284623602
 97
        0
 97
        1
330
88
 75
     2
 76
     1
 98
        1
 10
0.0
 20
0.0
450
        0
451
        0
460
0.0
461
0.0
452
        0
462
0.0
453
        0
470

  0
SPLINE
  5
8A
330
70
100
AcDbEntity
  8
레이어 1
 62
   250
420
  2299925
370
     9
100
AcDbSpline
210
0.0
220
0.0
230
1.0
 70
     9
 71
     3
 72
    14
 73
    10
 74
     0
 42
0.0000000001
 43
0.0000000001
 40
0.0
 40
0.0
 40
0.0
 40
0.0
 40
1.0
 40
1.0
 40
1.0
 40
2.0
 40
2.0
 40
2.0
 40
3.0
 40
3.0
 40
3.0
 40
3.0
 10
101.4376220703125
 20
-18.85357666015625
 30
0.0
 10
101.4376220703125
 20
-18.164306640625
 30
0.0
 10
100.8788452148437
 20
-17.60552978515625
 30
0.0
 10
100.1895751953125
 20
-17.60552978515625
 30
0.0
 10
100.1895751953125
 20
-17.60552978515625
 30
0.0
 10
100.1895751953125
 20
-20.1016845703125
 30
0.0
 10
100.1895751953125
 20
-20.1016845703125
 30
0.0
 10
100.8788452148437
 20
-20.1016845703125
 30
0.0
 10
101.4376220703125
 20
-19.54290771484375
 30
0.0
 10
101.4376220703125
 20
-18.85357666015625
 30
0.0
  0
HATCH
  5
8B
330
70
100
AcDbEntity
  8
레이어 1
 62
     7
420
 16508655
440
 33554687
100
AcDbHatch
 10
0.0
 20
0.0
 30
0.0
210
0.0
220
0.0
230
1.0
  2
SOLID
 70
     1
 71
     1
 91
        1
 92
        1
 93
        1
 72
     4
 94
        3
 73
     0
 74
     0
 95
       14
 96
       10
 40
0.0
 40
0.0
 40
0.0
 40
0.0
 40
1.0
 40
1.0
 40
1.0
 40
2.0
 40
2.0
 40
2.0
 40
3.0
 40
3.0
 40
3.0
 40
3.0
 10
101.4376220703125
 20
-18.85357666015625
 10
101.4376220703125
 20
-18.164306640625
 10
100.8788452148437
 20
-17.60552978515625
 10
100.1895751953125
 20
-17.60552978515625
 10
100.1895751953125
 20
-17.60552978515625
 10
100.1895751953125
 20
-20.1016845703125
 10
100.1895751953125
 20
-20.1016845703125
 10
100.8788452148437
 20
-20.1016845703125
 10
101.4376220703125
 20
-19.54290771484375
 10
101.4376220703125
 20
-18.85357666015625
 97
        0
 97
        1
330
8A
 75
     2
 76
     1
 98
        1
 10
0.0
 20
0.0
450
        0
451
        0
460
0.0
461
0.0
452
        0
462
0.0
453
        0
470

  0
SPLINE
  5
8C
330
70
100
AcDbEntity
  8
레이어 1
 62
   250
420
  2299925
370
     9
100
AcDbSpline
210
0.0
220
0.0
230
1.0
 70
     9
 71
     3
 72
    14
 73
    10
 74
     0
 42
0.0000000001
 43
0.0000000001
 40
0.0
 40
0.0
 40
0.0
 40
0.0
 40
1.0
 40
1.0
 40
1.0
 40
2.0
 40
2.0
 40
2.0
 40
3.0
 40
3.0
 40
3.0
 40
3.0
 10
104.7168623490761
 20
-16.31414572975791
 30
0.0
 10
104.7168623490761
 20
-17.00347678444541
 30
0.0
 10
105.2756392045448
 20
-17.56225363991416
 30
0.0
 10
105.9649092240761
 20
-17.56225363991416
 30
0.0
 10
105.9649092240761
 20
-17.56225363991416
 30
0.0
 10
105.9649092240761
 20
-15.06609885475791
 30
0.0
 10
105.9649092240761
 20
-15.06609885475791
 30
0.0
 10
105.2756392045448
 20
-15.06609885475791
 30
0.0
 10
104.7168623490761
 20
-15.62487571022666
 30
0.0
 10
104.7168623490761
 20
-16.31414572975791
 30
0.0
  0
HATCH
  5
8D
330
70
100
AcDbEntity
  8
레이어 1
 62
     7
420
 16508655
440
 33554687
100
AcDbHatch
 10
0.0
 20
0.0
 30
0.0
210
0.0
220
0.0
230
1.0
  2
SOLID
 70
     1
 71
     1
 91
        1
 92
        1
 93
        1
 72
     4
 94
        3
 73
     0
 74
     0
 95
       14
 96
       10
 40
0.0
 40
0.0
 40
0.0
 40
0.0
 40
1.0
 40
1.0
 40
1.0
 40
2.0
 40
2.0
 40
2.0
 40
3.0
 40
3.0
 40
3.0
 40
3.0
 10
104.7168623490761
 20
-16.31414572975791
 10
104.7168623490761
 20
-17.00347678444541
 10
105.2756392045448
 20
-17.56225363991416
 10
105.9649092240761
 20
-17.56225363991416
 10
105.9649092240761
 20
-17.56225363991416
 10
105.9649092240761
 20
-15.06609885475791
 10
105.9649092240761
 20
-15.06609885475791
 10
105.2756392045448
 20
-15.06609885475791
 10
104.7168623490761
 20
-15.62487571022666
 10
104.7168623490761
 20
-16.31414572975791
 97
        0
 97
        1
330
8C
 75
     2
 76
     1
 98
        1
 10
0.0
 20
0.0
450
        0
451
        0
460
0.0
461
0.0
452
        0
462
0.0
453
        0
470

  0
SPLINE
  5
8E
330
70
100
AcDbEntity
  8
레이어 1
 62
   250
420
  2299925
370
     9
100
AcDbSpline
210
0.0
220
0.0
230
1.0
 70
     9
 71
     3
 72
    14
 73
    10
 74
     0
 42
0.0000000001
 43
0.0000000001
 40
0.0
 40
0.0
 40
0.0
 40
0.0
 40
1.0
 40
1.0
 40
1.0
 40
2.0
 40
2.0
 40
2.0
 40
3.0
 40
3.0
 40
3.0
 40
3.0
 10
101.4376220703125
 20
-23.21722412109375
 30
0.0
 10
101.4376220703125
 20
-22.5279541015625
 30
0.0
 10
100.8788452148437
 20
-21.96917724609375
 30
0.0
 10
100.1895751953125
 20
-21.96917724609375
 30
0.0
 10
100.1895751953125
 20
-21.96917724609375
 30
0.0
 10
100.1895751953125
 20
-24.46533203125
 30
0.0
 10
100.1895751953125
 20
-24.46533203125
 30
0.0
 10
100.8788452148437
 20
-24.46533203125
 30
0.0
 10
101.4376220703125
 20
-23.90655517578125
 30
0.0
 10
101.4376220703125
 20
-23.21722412109375
 30
0.0
  0
HATCH
  5
8F
330
70
100
AcDbEntity
  8
레이어 1
 62
     7
420
 16508655
440
 33554687
100
AcDbHatch
 10
0.0
 20
0.0
 30
0.0
210
0.0
220
0.0
230
1.0
  2
SOLID
 70
     1
 71
     1
 91
        1
 92
        1
 93
        1
 72
     4
 94
        3
 73
     0
 74
     0
 95
       14
 96
       10
 40
0.0
 40
0.0
 40
0.0
 40
0.0
 40
1.0
 40
1.0
 40
1.0
 40
2.0
 40
2.0
 40
2.0
 40
3.0
 40
3.0
 40
3.0
 40
3.0
 10
101.4376220703125
 20
-23.21722412109375
 10
101.4376220703125
 20
-22.5279541015625
 10
100.8788452148437
 20
-21.96917724609375
 10
100.1895751953125
 20
-21.96917724609375
 10
100.1895751953125
 20
-21.96917724609375
 10
100.1895751953125
 20
-24.46533203125
 10
100.1895751953125
 20
-24.46533203125
 10
100.8788452148437
 20
-24.46533203125
 10
101.4376220703125
 20
-23.90655517578125
 10
101.4376220703125
 20
-23.21722412109375
 97
        0
 97
        1
330
8E
 75
     2
 76
     1
 98
        1
 10
0.0
 20
0.0
450
        0
451
        0
460
0.0
461
0.0
452
        0
462
0.0
453
        0
470

  0
SPLINE
  5
90
330
70
100
AcDbEntity
  8
레이어 1
 62
   250
420
  2299925
370
     9
100
AcDbSpline
210
0.0
220
0.0
230
1.0
 70
     9
 71
     3
 72
    14
 73
    10
 74
     0
 42
0.0000000001
 43
0.0000000001
 40
0.0
 40
0.0
 40
0.0
 40
0.0
 40
1.0
 40
1.0
 40
1.0
 40
2.0
 40
2.0
 40
2.0
 40
3.0
 40
3.0
 40
3.0
 40
3.0
 10
102.8447920365761
 20
-21.26837224532483
 30
0.0
 10
102.8447920365761
 20
-21.95770330001233
 30
0.0
 10
103.4035688920448
 20
-22.51648015548108
 30
0.0
 10
104.0928389115761
 20
-22.51648015548108
 30
0.0
 10
104.0928389115761
 20
-22.51648015548108
 30
0.0
 10
104.0928389115761
 20
-20.02032537032483
 30
0.0
 10
104.0928389115761
 20
-20.02032537032483
 30
0.0
 10
103.4035688920448
 20
-20.02032537032483
 30
0.0
 10
102.8447920365761
 20
-20.57910222579358
 30
0.0
 10
102.8447920365761
 20
-21.26837224532483
 30
0.0
  0
HATCH
  5
91
330
70
100
AcDbEntity
  8
레이어 1
 62
     7
420
 16508655
440
 33554687
100
AcDbHatch
 10
0.0
 20
0.0
 30
0.0
210
0.0
220
0.0
230
1.0
  2
SOLID
 70
     1
 71
     1
 91
        1
 92
        1
 93
        1
 72
     4
 94
        3
 73
     0
 74
     0
 95
       14
 96
       10
 40
0.0
 40
0.0
 40
0.0
 40
0.0
 40
1.0
 40
1.0
 40
1.0
 40
2.0
 40
2.0
 40
2.0
 40
3.0
 40
3.0
 40
3.0
 40
3.0
 10
102.8447920365761
 20
-21.26837224532483
 10
102.8447920365761
 20
-21.95770330001233
 10
103.4035688920448
 20
-22.51648015548108
 10
104.0928389115761
 20
-22.51648015548108
 10
104.0928389115761
 20
-22.51648015548108
 10
104.0928389115761
 20
-20.02032537032483
 10
104.0928389115761
 20
-20.02032537032483
 10
103.4035688920448
 20
-20.02032537032483
 10
102.8447920365761
 20
-20.57910222579358
 10
102.8447920365761
 20
-21.26837224532483
 97
        0
 97
        1
330
90
 75
     2
 76
     1
 98
        1
 10
0.0
 20
0.0
450
        0
451
        0
460
0.0
461
0.0
452
        0
462
0.0
453
        0
470

  0
SPLINE
  5
92
330
70
100
AcDbEntity
  8
레이어 1
 62
   250
420
  2299925
370
     9
100
AcDbSpline
210
0.0
220
0.0
230
1.0
 70
    11
 71
     3
 72
    14
 73
    10
 74
     0
 42
0.0000000001
 43
0.0000000001
 40
0.0
 40
0.0
 40
0.0
 40
0.0
 40
1.0
 40
1.0
 40
1.0
 40
2.0
 40
2.0
 40
2.0
 40
3.0
 40
3.0
 40
3.0
 40
3.0
 10
101.4376220703125
 20
-27.61669921875
 30
0.0
 10
101.4376220703125
 20
-26.92742919921875
 30
0.0
 10
100.8788452148437
 20
-26.36865234375
 30
0.0
 10
100.1895751953125
 20
-26.36865234375
 30
0.0
 10
100.1895751953125
 20
-26.36865234375
 30
0.0
 10
100.1895751953125
 20
-28.86474609375
 30
0.0
 10
100.1895751953125
 20
-28.86474609375
 30
0.0
 10
100.8788452148437
 20
-28.86474609375
 30
0.0
 10
101.4376220703125
 20
-28.30596923828125
 30
0.0
 10
101.4376220703125
 20
-27.61669921875
 30
0.0
  0
HATCH
  5
93
330
70
100
AcDbEntity
  8
레이어 1
 62
     7
420
 16508655
440
 33554687
100
AcDbHatch
 10
0.0
 20
0.0
 30
0.0
210
0.0
220
0.0
230
1.0
  2
SOLID
 70
     1
 71
     1
 91
        1
 92
        1
 93
        1
 72
     4
 94
        3
 73
     0
 74
     0
 95
       14
 96
       10
 40
0.0
 40
0.0
 40
0.0
 40
0.0
 40
1.0
 40
1.0
 40
1.0
 40
2.0
 40
2.0
 40
2.0
 40
3.0
 40
3.0
 40
3.0
 40
3.0
 10
101.4376220703125
 20
-27.61669921875
 10
101.4376220703125
 20
-26.92742919921875
 10
100.8788452148437
 20
-26.36865234375
 10
100.1895751953125
 20
-26.36865234375
 10
100.1895751953125
 20
-26.36865234375
 10
100.1895751953125
 20
-28.86474609375
 10
100.1895751953125
 20
-28.86474609375
 10
100.8788452148437
 20
-28.86474609375
 10
101.4376220703125
 20
-28.30596923828125
 10
101.4376220703125
 20
-27.61669921875
 97
        0
 97
        1
330
92
 75
     2
 76
     1
 98
        1
 10
0.0
 20
0.0
450
        0
451
        0
460
0.0
461
0.0
452
        0
462
0.0
453
        0
470

  0
SPLINE
  5
94
330
70
100
AcDbEntity
  8
레이어 1
 62
   250
420
  2299925
370
     9
100
AcDbSpline
210
0.0
220
0.0
230
1.0
 70
    11
 71
     3
 72
    14
 73
    10
 74
     0
 42
0.0000000001
 43
0.0000000001
 40
0.0
 40
0.0
 40
0.0
 40
0.0
 40
1.0
 40
1.0
 40
1.0
 40
2.0
 40
2.0
 40
2.0
 40
3.0
 40
3.0
 40
3.0
 40
3.0
 10
103.4688154740761
 20
-26.36865234375
 30
0.0
 10
103.4688154740761
 20
-27.05792236328125
 30
0.0
 10
104.0275923295448
 20
-27.61669921875
 30
0.0
 10
104.7168623490761
 20
-27.61669921875
 30
0.0
 10
104.7168623490761
 20
-27.61669921875
 30
0.0
 10
104.7168623490761
 20
-25.12060546875
 30
0.0
 10
104.7168623490761
 20
-25.12060546875
 30
0.0
 10
104.0275923295448
 20
-25.12060546875
 30
0.0
 10
103.4688154740761
 20
-25.67938232421875
 30
0.0
 10
103.4688154740761
 20
-26.36865234375
 30
0.0
  0
HATCH
  5
95
330
70
100
AcDbEntity
  8
레이어 1
 62
     7
420
 16508655
440
 33554687
100
AcDbHatch
 10
0.0
 20
0.0
 30
0.0
210
0.0
220
0.0
230
1.0
  2
SOLID
 70
     1
 71
     1
 91
        1
 92
        1
 93
        1
 72
     4
 94
        3
 73
     0
 74
     0
 95
       14
 96
       10
 40
0.0
 40
0.0
 40
0.0
 40
0.0
 40
1.0
 40
1.0
 40
1.0
 40
2.0
 40
2.0
 40
2.0
 40
3.0
 40
3.0
 40
3.0
 40
3.0
 10
103.4688154740761
 20
-26.36865234375
 10
103.4688154740761
 20
-27.05792236328125
 10
104.0275923295448
 20
-27.61669921875
 10
104.7168623490761
 20
-27.61669921875
 10
104.7168623490761
 20
-27.61669921875
 10
104.7168623490761
 20
-25.12060546875
 10
104.7168623490761
 20
-25.12060546875
 10
104.0275923295448
 20
-25.12060546875
 10
103.4688154740761
 20
-25.67938232421875
 10
103.4688154740761
 20
-26.36865234375
 97
        0
 97
        1
330
94
 75
     2
 76
     1
 98
        1
 10
0.0
 20
0.0
450
        0
451
        0
460
0.0
461
0.0
452
        0
462
0.0
453
        0
470

  0
SPLINE
  5
96
330
70
100
AcDbEntity
  8
레이어 1
 62
   250
420
  2299925
370
     9
100
AcDbSpline
210
0.0
220
0.0
230
1.0
 70
     9
 71
     3
 72
    14
 73
    10
 74
     0
 42
0.0000000001
 43
0.0000000001
 40
0.0
 40
0.0
 40
0.0
 40
0.0
 40
1.0
 40
1.0
 40
1.0
 40
2.0
 40
2.0
 40
2.0
 40
3.0
 40
3.0
 40
3.0
 40
3.0
 10
101.4376220703125
 20
-32.01617431640625
 30
0.0
 10
101.4376220703125
 20
-31.32684326171875
 30
0.0
 10
100.8788452148437
 20
-30.76806640625
 30
0.0
 10
100.1895751953125
 20
-30.76806640625
 30
0.0
 10
100.1895751953125
 20
-30.76806640625
 30
0.0
 10
100.1895751953125
 20
-33.26422119140625
 30
0.0
 10
100.1895751953125
 20
-33.26422119140625
 30
0.0
 10
100.8788452148437
 20
-33.26422119140625
 30
0.0
 10
101.4376220703125
 20
-32.7054443359375
 30
0.0
 10
101.4376220703125
 20
-32.01617431640625
 30
0.0
  0
HATCH
  5
97
330
70
100
AcDbEntity
  8
레이어 1
 62
     7
420
 16508655
440
 33554687
100
AcDbHatch
 10
0.0
 20
0.0
 30
0.0
210
0.0
220
0.0
230
1.0
  2
SOLID
 70
     1
 71
     1
 91
        1
 92
        1
 93
        1
 72
     4
 94
        3
 73
     0
 74
     0
 95
       14
 96
       10
 40
0.0
 40
0.0
 40
0.0
 40
0.0
 40
1.0
 40
1.0
 40
1.0
 40
2.0
 40
2.0
 40
2.0
 40
3.0
 40
3.0
 40
3.0
 40
3.0
 10
101.4376220703125
 20
-32.01617431640625
 10
101.4376220703125
 20
-31.32684326171875
 10
100.8788452148437
 20
-30.76806640625
 10
100.1895751953125
 20
-30.76806640625
 10
100.1895751953125
 20
-30.76806640625
 10
100.1895751953125
 20
-33.26422119140625
 10
100.1895751953125
 20
-33.26422119140625
 10
100.8788452148437
 20
-33.26422119140625
 10
101.4376220703125
 20
-32.7054443359375
 10
101.4376220703125
 20
-32.01617431640625
 97
        0
 97
        1
330
96
 75
     2
 76
     1
 98
        1
 10
0.0
 20
0.0
450
        0
451
        0
460
0.0
461
0.0
452
        0
462
0.0
453
        0
470

  0
SPLINE
  5
98
330
70
100
AcDbEntity
  8
레이어 1
 62
   250
420
  2299925
370
     9
100
AcDbSpline
210
0.0
220
0.0
230
1.0
 70
     9
 71
     3
 72
    14
 73
    10
 74
     0
 42
0.0000000001
 43
0.0000000001
 40
0.0
 40
0.0
 40
0.0
 40
0.0
 40
1.0
 40
1.0
 40
1.0
 40
2.0
 40
2.0
 40
2.0
 40
3.0
 40
3.0
 40
3.0
 40
3.0
 10
103.4688154740761
 20
-30.11285400390625
 30
0.0
 10
103.4688154740761
 20
-30.8021240234375
 30
0.0
 10
104.0275923295448
 20
-31.36090087890625
 30
0.0
 10
104.7168623490761
 20
-31.36090087890625
 30
0.0
 10
104.7168623490761
 20
-31.36090087890625
 30
0.0
 10
104.7168623490761
 20
-28.86474609375
 30
0.0
 10
104.7168623490761
 20
-28.86474609375
 30
0.0
 10
104.0275923295448
 20
-28.86474609375
 30
0.0
 10
103.4688154740761
 20
-29.42352294921875
 30
0.0
 10
103.4688154740761
 20
-30.11285400390625
 30
0.0
  0
HATCH
  5
99
330
70
100
AcDbEntity
  8
레이어 1
 62
     7
420
 16508655
440
 33554687
100
AcDbHatch
 10
0.0
 20
0.0
 30
0.0
210
0.0
220
0.0
230
1.0
  2
SOLID
 70
     1
 71
     1
 91
        1
 92
        1
 93
        1
 72
     4
 94
        3
 73
     0
 74
     0
 95
       14
 96
       10
 40
0.0
 40
0.0
 40
0.0
 40
0.0
 40
1.0
 40
1.0
 40
1.0
 40
2.0
 40
2.0
 40
2.0
 40
3.0
 40
3.0
 40
3.0
 40
3.0
 10
103.4688154740761
 20
-30.11285400390625
 10
103.4688154740761
 20
-30.8021240234375
 10
104.0275923295448
 20
-31.36090087890625
 10
104.7168623490761
 20
-31.36090087890625
 10
104.7168623490761
 20
-31.36090087890625
 10
104.7168623490761
 20
-28.86474609375
 10
104.7168623490761
 20
-28.86474609375
 10
104.0275923295448
 20
-28.86474609375
 10
103.4688154740761
 20
-29.42352294921875
 10
103.4688154740761
 20
-30.11285400390625
 97
        0
 97
        1
330
98
 75
     2
 76
     1
 98
        1
 10
0.0
 20
0.0
450
        0
451
        0
460
0.0
461
0.0
452
        0
462
0.0
453
        0
470

  0
SPLINE
  5
9A
330
70
100
AcDbEntity
  8
레이어 1
 62
   250
420
  2299925
370
     9
100
AcDbSpline
210
0.0
220
0.0
230
1.0
 70
     9
 71
     3
 72
    14
 73
    10
 74
     0
 42
0.0000000001
 43
0.0000000001
 40
0.0
 40
0.0
 40
0.0
 40
0.0
 40
1.0
 40
1.0
 40
1.0
 40
2.0
 40
2.0
 40
2.0
 40
3.0
 40
3.0
 40
3.0
 40
3.0
 10
101.4376220703125
 20
-36.40594482421875
 30
0.0
 10
101.4376220703125
 20
-35.7166748046875
 30
0.0
 10
100.8788452148437
 20
-35.15789794921875
 30
0.0
 10
100.1895751953125
 20
-35.15789794921875
 30
0.0
 10
100.1895751953125
 20
-35.15789794921875
 30
0.0
 10
100.1895751953125
 20
-37.654052734375
 30
0.0
 10
100.1895751953125
 20
-37.654052734375
 30
0.0
 10
100.8788452148437
 20
-37.654052734375
 30
0.0
 10
101.4376220703125
 20
-37.09527587890625
 30
0.0
 10
101.4376220703125
 20
-36.40594482421875
 30
0.0
  0
HATCH
  5
9B
330
70
100
AcDbEntity
  8
레이어 1
 62
     7
420
 16508655
440
 33554687
100
AcDbHatch
 10
0.0
 20
0.0
 30
0.0
210
0.0
220
0.0
230
1.0
  2
SOLID
 70
     1
 71
     1
 91
        1
 92
        1
 93
        1
 72
     4
 94
        3
 73
     0
 74
     0
 95
       14
 96
       10
 40
0.0
 40
0.0
 40
0.0
 40
0.0
 40
1.0
 40
1.0
 40
1.0
 40
2.0
 40
2.0
 40
2.0
 40
3.0
 40
3.0
 40
3.0
 40
3.0
 10
101.4376220703125
 20
-36.40594482421875
 10
101.4376220703125
 20
-35.7166748046875
 10
100.8788452148437
 20
-35.15789794921875
 10
100.1895751953125
 20
-35.15789794921875
 10
100.1895751953125
 20
-35.15789794921875
 10
100.1895751953125
 20
-37.654052734375
 10
100.1895751953125
 20
-37.654052734375
 10
100.8788452148437
 20
-37.654052734375
 10
101.4376220703125
 20
-37.09527587890625
 10
101.4376220703125
 20
-36.40594482421875
 97
        0
 97
        1
330
9A
 75
     2
 76
     1
 98
        1
 10
0.0
 20
0.0
450
        0
451
        0
460
0.0
461
0.0
452
        0
462
0.0
453
        0
470

  0
SPLINE
  5
9C
330
70
100
AcDbEntity
  8
레이어 1
 62
   250
420
  2299925
370
     9
100
AcDbSpline
210
0.0
220
0.0
230
1.0
 70
     9
 71
     3
 72
    14
 73
    10
 74
     0
 42
0.0000000001
 43
0.0000000001
 40
0.0
 40
0.0
 40
0.0
 40
0.0
 40
1.0
 40
1.0
 40
1.0
 40
2.0
 40
2.0
 40
2.0
 40
3.0
 40
3.0
 40
3.0
 40
3.0
 10
103.4688154740761
 20
-35.0765308250011
 30
0.0
 10
103.4688154740761
 20
-35.7658618796886
 30
0.0
 10
104.0275923295448
 20
-36.32463873515735
 30
0.0
 10
104.7168623490761
 20
-36.32463873515735
 30
0.0
 10
104.7168623490761
 20
-36.32463873515735
 30
0.0
 10
104.7168623490761
 20
-33.8284839500011
 30
0.0
 10
104.7168623490761
 20
-33.8284839500011
 30
0.0
 10
104.0275923295448
 20
-33.8284839500011
 30
0.0
 10
103.4688154740761
 20
-34.38726080546985
 30
0.0
 10
103.4688154740761
 20
-35.0765308250011
 30
0.0
  0
HATCH
  5
9D
330
70
100
AcDbEntity
  8
레이어 1
 62
     7
420
 16508655
440
 33554687
100
AcDbHatch
 10
0.0
 20
0.0
 30
0.0
210
0.0
220
0.0
230
1.0
  2
SOLID
 70
     1
 71
     1
 91
        1
 92
        1
 93
        1
 72
     4
 94
        3
 73
     0
 74
     0
 95
       14
 96
       10
 40
0.0
 40
0.0
 40
0.0
 40
0.0
 40
1.0
 40
1.0
 40
1.0
 40
2.0
 40
2.0
 40
2.0
 40
3.0
 40
3.0
 40
3.0
 40
3.0
 10
103.4688154740761
 20
-35.0765308250011
 10
103.4688154740761
 20
-35.7658618796886
 10
104.0275923295448
 20
-36.32463873515735
 10
104.7168623490761
 20
-36.32463873515735
 10
104.7168623490761
 20
-36.32463873515735
 10
104.7168623490761
 20
-33.8284839500011
 10
104.7168623490761
 20
-33.8284839500011
 10
104.0275923295448
 20
-33.8284839500011
 10
103.4688154740761
 20
-34.38726080546985
 10
103.4688154740761
 20
-35.0765308250011
 97
        0
 97
        1
330
9C
 75
     2
 76
     1
 98
        1
 10
0.0
 20
0.0
450
        0
451
        0
460
0.0
461
0.0
452
        0
462
0.0
453
        0
470

  0
SPLINE
  5
9E
330
70
100
AcDbEntity
  8
레이어 1
 62
   250
420
  2299925
370
     9
100
AcDbSpline
210
0.0
220
0.0
230
1.0
 70
    11
 71
     3
 72
    14
 73
    10
 74
     0
 42
0.0000000001
 43
0.0000000001
 40
0.0
 40
0.0
 40
0.0
 40
0.0
 40
1.0
 40
1.0
 40
1.0
 40
2.0
 40
2.0
 40
2.0
 40
3.0
 40
3.0
 40
3.0
 40
3.0
 10
101.4376220703125
 20
-40.1302490234375
 30
0.0
 10
101.4376220703125
 20
-39.44097900390625
 30
0.0
 10
100.8788452148437
 20
-38.8822021484375
 30
0.0
 10
100.1895751953125
 20
-38.8822021484375
 30
0.0
 10
100.1895751953125
 20
-38.8822021484375
 30
0.0
 10
100.1895751953125
 20
-41.37829589843749
 30
0.0
 10
100.1895751953125
 20
-41.37829589843749
 30
0.0
 10
100.8788452148437
 20
-41.37829589843749
 30
0.0
 10
101.4376220703125
 20
-40.81951904296874
 30
0.0
 10
101.4376220703125
 20
-40.1302490234375
 30
0.0
  0
HATCH
  5
9F
330
70
100
AcDbEntity
  8
레이어 1
 62
     7
420
 16508655
440
 33554687
100
AcDbHatch
 10
0.0
 20
0.0
 30
0.0
210
0.0
220
0.0
230
1.0
  2
SOLID
 70
     1
 71
     1
 91
        1
 92
        1
 93
        1
 72
     4
 94
        3
 73
     0
 74
     0
 95
       14
 96
       10
 40
0.0
 40
0.0
 40
0.0
 40
0.0
 40
1.0
 40
1.0
 40
1.0
 40
2.0
 40
2.0
 40
2.0
 40
3.0
 40
3.0
 40
3.0
 40
3.0
 10
101.4376220703125
 20
-40.1302490234375
 10
101.4376220703125
 20
-39.44097900390625
 10
100.8788452148437
 20
-38.8822021484375
 10
100.1895751953125
 20
-38.8822021484375
 10
100.1895751953125
 20
-38.8822021484375
 10
100.1895751953125
 20
-41.37829589843749
 10
100.1895751953125
 20
-41.37829589843749
 10
100.8788452148437
 20
-41.37829589843749
 10
101.4376220703125
 20
-40.81951904296874
 10
101.4376220703125
 20
-40.1302490234375
 97
        0
 97
        1
330
9E
 75
     2
 76
     1
 98
        1
 10
0.0
 20
0.0
450
        0
451
        0
460
0.0
461
0.0
452
        0
462
0.0
453
        0
470

  0
SPLINE
  5
A0
330
70
100
AcDbEntity
  8
레이어 1
 62
   250
420
  2299925
370
     9
100
AcDbSpline
210
0.0
220
0.0
230
1.0
 70
    11
 71
     3
 72
    14
 73
    10
 74
     0
 42
0.0000000001
 43
0.0000000001
 40
0.0
 40
0.0
 40
0.0
 40
0.0
 40
1.0
 40
1.0
 40
1.0
 40
2.0
 40
2.0
 40
2.0
 40
3.0
 40
3.0
 40
3.0
 40
3.0
 10
104.0928389115761
 20
-37.5726828360057
 30
0.0
 10
104.0928389115761
 20
-38.26195285553695
 30
0.0
 10
104.6516157670448
 20
-38.8207297110057
 30
0.0
 10
105.3408857865761
 20
-38.8207297110057
 30
0.0
 10
105.3408857865761
 20
-38.8207297110057
 30
0.0
 10
105.3408857865761
 20
-36.3246359610057
 30
0.0
 10
105.3408857865761
 20
-36.3246359610057
 30
0.0
 10
104.6516157670448
 20
-36.3246359610057
 30
0.0
 10
104.0928389115761
 20
-36.88341281647445
 30
0.0
 10
104.0928389115761
 20
-37.5726828360057
 30
0.0
  0
HATCH
  5
A1
330
70
100
AcDbEntity
  8
레이어 1
 62
     7
420
 16508655
440
 33554687
100
AcDbHatch
 10
0.0
 20
0.0
 30
0.0
210
0.0
220
0.0
230
1.0
  2
SOLID
 70
     1
 71
     1
 91
        1
 92
        1
 93
        1
 72
     4
 94
        3
 73
     0
 74
     0
 95
       14
 96
       10
 40
0.0
 40
0.0
 40
0.0
 40
0.0
 40
1.0
 40
1.0
 40
1.0
 40
2.0
 40
2.0
 40
2.0
 40
3.0
 40
3.0
 40
3.0
 40
3.0
 10
104.0928389115761
 20
-37.5726828360057
 10
104.0928389115761
 20
-38.26195285553695
 10
104.6516157670448
 20
-38.8207297110057
 10
105.3408857865761
 20
-38.8207297110057
 10
105.3408857865761
 20
-38.8207297110057
 10
105.3408857865761
 20
-36.3246359610057
 10
105.3408857865761
 20
-36.3246359610057
 10
104.6516157670448
 20
-36.3246359610057
 10
104.0928389115761
 20
-36.88341281647445
 10
104.0928389115761
 20
-37.5726828360057
 97
        0
 97
        1
330
A0
 75
     2
 76
     1
 98
        1
 10
0.0
 20
0.0
450
        0
451
        0
460
0.0
461
0.0
452
        0
462
0.0
453
        0
470

  0
SPLINE
  5
A2
330
70
100
AcDbEntity
  8
레이어 1
 62
   250
420
  2299925
370
     9
100
AcDbSpline
210
0.0
220
0.0
230
1.0
 70
     9
 71
     3
 72
    14
 73
    10
 74
     0
 42
0.0000000001
 43
0.0000000001
 40
0.0
 40
0.0
 40
0.0
 40
0.0
 40
1.0
 40
1.0
 40
1.0
 40
2.0
 40
2.0
 40
2.0
 40
3.0
 40
3.0
 40
3.0
 40
3.0
 10
101.4376220703125
 20
-43.85455322265625
 30
0.0
 10
101.4376220703125
 20
-43.16522216796875
 30
0.0
 10
100.8788452148437
 20
-42.6064453125
 30
0.0
 10
100.1895751953125
 20
-42.6064453125
 30
0.0
 10
100.1895751953125
 20
-42.6064453125
 30
0.0
 10
100.1895751953125
 20
-45.10260009765625
 30
0.0
 10
100.1895751953125
 20
-45.10260009765625
 30
0.0
 10
100.8788452148437
 20
-45.10260009765625
 30
0.0
 10
101.4376220703125
 20
-44.5438232421875
 30
0.0
 10
101.4376220703125
 20
-43.85455322265625
 30
0.0
  0
HATCH
  5
A3
330
70
100
AcDbEntity
  8
레이어 1
 62
     7
420
 16508655
440
 33554687
100
AcDbHatch
 10
0.0
 20
0.0
 30
0.0
210
0.0
220
0.0
230
1.0
  2
SOLID
 70
     1
 71
     1
 91
        1
 92
        1
 93
        1
 72
     4
 94
        3
 73
     0
 74
     0
 95
       14
 96
       10
 40
0.0
 40
0.0
 40
0.0
 40
0.0
 40
1.0
 40
1.0
 40
1.0
 40
2.0
 40
2.0
 40
2.0
 40
3.0
 40
3.0
 40
3.0
 40
3.0
 10
101.4376220703125
 20
-43.85455322265625
 10
101.4376220703125
 20
-43.16522216796875
 10
100.8788452148437
 20
-42.6064453125
 10
100.1895751953125
 20
-42.6064453125
 10
100.1895751953125
 20
-42.6064453125
 10
100.1895751953125
 20
-45.10260009765625
 10
100.1895751953125
 20
-45.10260009765625
 10
100.8788452148437
 20
-45.10260009765625
 10
101.4376220703125
 20
-44.5438232421875
 10
101.4376220703125
 20
-43.85455322265625
 97
        0
 97
        1
330
A2
 75
     2
 76
     1
 98
        1
 10
0.0
 20
0.0
450
        0
451
        0
460
0.0
461
0.0
452
        0
462
0.0
453
        0
470

  0
SPLINE
  5
A4
330
70
100
AcDbEntity
  8
레이어 1
 62
   250
420
  2299925
370
     9
100
AcDbSpline
210
0.0
220
0.0
230
1.0
 70
     9
 71
     3
 72
    14
 73
    10
 74
     0
 42
0.0000000001
 43
0.0000000001
 40
0.0
 40
0.0
 40
0.0
 40
0.0
 40
1.0
 40
1.0
 40
1.0
 40
2.0
 40
2.0
 40
2.0
 40
3.0
 40
3.0
 40
3.0
 40
3.0
 10
105.0200972123566
 20
-42.52515969270644
 30
0.0
 10
105.0200972123566
 20
-43.21442971223769
 30
0.0
 10
105.5788740678254
 20
-43.77320656770644
 30
0.0
 10
106.2681440873566
 20
-43.77320656770644
 30
0.0
 10
106.2681440873566
 20
-43.77320656770644
 30
0.0
 10
106.2681440873566
 20
-41.27705178255019
 30
0.0
 10
106.2681440873566
 20
-41.27705178255019
 30
0.0
 10
105.5788740678254
 20
-41.27705178255019
 30
0.0
 10
105.0200972123566
 20
-41.83582863801894
 30
0.0
 10
105.0200972123566
 20
-42.52515969270644
 30
0.0
  0
HATCH
  5
A5
330
70
100
AcDbEntity
  8
레이어 1
 62
     7
420
 16508655
440
 33554687
100
AcDbHatch
 10
0.0
 20
0.0
 30
0.0
210
0.0
220
0.0
230
1.0
  2
SOLID
 70
     1
 71
     1
 91
        1
 92
        1
 93
        1
 72
     4
 94
        3
 73
     0
 74
     0
 95
       14
 96
       10
 40
0.0
 40
0.0
 40
0.0
 40
0.0
 40
1.0
 40
1.0
 40
1.0
 40
2.0
 40
2.0
 40
2.0
 40
3.0
 40
3.0
 40
3.0
 40
3.0
 10
105.0200972123566
 20
-42.52515969270644
 10
105.0200972123566
 20
-43.21442971223769
 10
105.5788740678254
 20
-43.77320656770644
 10
106.2681440873566
 20
-43.77320656770644
 10
106.2681440873566
 20
-43.77320656770644
 10
106.2681440873566
 20
-41.27705178255019
 10
106.2681440873566
 20
-41.27705178255019
 10
105.5788740678254
 20
-41.27705178255019
 10
105.0200972123566
 20
-41.83582863801894
 10
105.0200972123566
 20
-42.52515969270644
 97
        0
 97
        1
330
A4
 75
     2
 76
     1
 98
        1
 10
0.0
 20
0.0
450
        0
451
        0
460
0.0
461
0.0
452
        0
462
0.0
453
        0
470

  0
SPLINE
  5
A6
330
70
100
AcDbEntity
  8
레이어 1
 62
   250
420
  2299925
370
     9
100
AcDbSpline
210
0.0
220
0.0
230
1.0
 70
     9
 71
     3
 72
    14
 73
    10
 74
     0
 42
0.0000000001
 43
0.0000000001
 40
0.0
 40
0.0
 40
0.0
 40
0.0
 40
1.0
 40
1.0
 40
1.0
 40
2.0
 40
2.0
 40
2.0
 40
3.0
 40
3.0
 40
3.0
 40
3.0
 10
-1.248046875
 20
-18.77227783203125
 30
0.0
 10
-1.248046875
 20
-19.4615478515625
 30
0.0
 10
-0.68927001953125
 20
-20.02032470703125
 30
0.0
 10
0.0
 20
-20.02032470703125
 30
0.0
 10
0.0
 20
-20.02032470703125
 30
0.0
 10
0.0
 20
-17.524169921875
 30
0.0
 10
0.0
 20
-17.524169921875
 30
0.0
 10
-0.68927001953125
 20
-17.524169921875
 30
0.0
 10
-1.248046875
 20
-18.08294677734375
 30
0.0
 10
-1.248046875
 20
-18.77227783203125
 30
0.0
  0
HATCH
  5
A7
330
70
100
AcDbEntity
  8
레이어 1
 62
     7
420
 16508655
440
 33554687
100
AcDbHatch
 10
0.0
 20
0.0
 30
0.0
210
0.0
220
0.0
230
1.0
  2
SOLID
 70
     1
 71
     1
 91
        1
 92
        1
 93
        1
 72
     4
 94
        3
 73
     0
 74
     0
 95
       14
 96
       10
 40
0.0
 40
0.0
 40
0.0
 40
0.0
 40
1.0
 40
1.0
 40
1.0
 40
2.0
 40
2.0
 40
2.0
 40
3.0
 40
3.0
 40
3.0
 40
3.0
 10
-1.248046875
 20
-18.77227783203125
 10
-1.248046875
 20
-19.4615478515625
 10
-0.68927001953125
 20
-20.02032470703125
 10
0.0
 20
-20.02032470703125
 10
0.0
 20
-20.02032470703125
 10
0.0
 20
-17.524169921875
 10
0.0
 20
-17.524169921875
 10
-0.68927001953125
 20
-17.524169921875
 10
-1.248046875
 20
-18.08294677734375
 10
-1.248046875
 20
-18.77227783203125
 97
        0
 97
        1
330
A6
 75
     2
 76
     1
 98
        1
 10
0.0
 20
0.0
450
        0
451
        0
460
0.0
461
0.0
452
        0
462
0.0
453
        0
470

  0
SPLINE
  5
A8
330
70
100
AcDbEntity
  8
레이어 1
 62
   250
420
  2299925
370
     9
100
AcDbSpline
210
0.0
220
0.0
230
1.0
 70
     9
 71
     3
 72
    14
 73
    10
 74
     0
 42
0.0000000001
 43
0.0000000001
 40
0.0
 40
0.0
 40
0.0
 40
0.0
 40
1.0
 40
1.0
 40
1.0
 40
2.0
 40
2.0
 40
2.0
 40
3.0
 40
3.0
 40
3.0
 40
3.0
 10
-1.248046875
 20
-23.1358642578125
 30
0.0
 10
-1.248046875
 20
-23.8251953125
 30
0.0
 10
-0.68927001953125
 20
-24.38397216796875
 30
0.0
 10
0.0
 20
-24.38397216796875
 30
0.0
 10
0.0
 20
-24.38397216796875
 30
0.0
 10
0.0
 20
-21.8878173828125
 30
0.0
 10
0.0
 20
-21.8878173828125
 30
0.0
 10
-0.68927001953125
 20
-21.8878173828125
 30
0.0
 10
-1.248046875
 20
-22.44659423828125
 30
0.0
 10
-1.248046875
 20
-23.1358642578125
 30
0.0
  0
HATCH
  5
A9
330
70
100
AcDbEntity
  8
레이어 1
 62
     7
420
 16508655
440
 33554687
100
AcDbHatch
 10
0.0
 20
0.0
 30
0.0
210
0.0
220
0.0
230
1.0
  2
SOLID
 70
     1
 71
     1
 91
        1
 92
        1
 93
        1
 72
     4
 94
        3
 73
     0
 74
     0
 95
       14
 96
       10
 40
0.0
 40
0.0
 40
0.0
 40
0.0
 40
1.0
 40
1.0
 40
1.0
 40
2.0
 40
2.0
 40
2.0
 40
3.0
 40
3.0
 40
3.0
 40
3.0
 10
-1.248046875
 20
-23.1358642578125
 10
-1.248046875
 20
-23.8251953125
 10
-0.68927001953125
 20
-24.38397216796875
 10
0.0
 20
-24.38397216796875
 10
0.0
 20
-24.38397216796875
 10
0.0
 20
-21.8878173828125
 10
0.0
 20
-21.8878173828125
 10
-0.68927001953125
 20
-21.8878173828125
 10
-1.248046875
 20
-22.44659423828125
 10
-1.248046875
 20
-23.1358642578125
 97
        0
 97
        1
330
A8
 75
     2
 76
     1
 98
        1
 10
0.0
 20
0.0
450
        0
451
        0
460
0.0
461
0.0
452
        0
462
0.0
453
        0
470

  0
SPLINE
  5
AA
330
70
100
AcDbEntity
  8
레이어 1
 62
   250
420
  2299925
370
     9
100
AcDbSpline
210
0.0
220
0.0
230
1.0
 70
    11
 71
     3
 72
    14
 73
    10
 74
     0
 42
0.0000000001
 43
0.0000000001
 40
0.0
 40
0.0
 40
0.0
 40
0.0
 40
1.0
 40
1.0
 40
1.0
 40
2.0
 40
2.0
 40
2.0
 40
3.0
 40
3.0
 40
3.0
 40
3.0
 10
-1.248046875
 20
-27.53533935546875
 30
0.0
 10
-1.248046875
 20
-28.224609375
 30
0.0
 10
-0.68927001953125
 20
-28.78338623046875
 30
0.0
 10
0.0
 20
-28.78338623046875
 30
0.0
 10
0.0
 20
-28.78338623046875
 30
0.0
 10
0.0
 20
-26.28729248046875
 30
0.0
 10
0.0
 20
-26.28729248046875
 30
0.0
 10
-0.68927001953125
 20
-26.28729248046875
 30
0.0
 10
-1.248046875
 20
-26.8460693359375
 30
0.0
 10
-1.248046875
 20
-27.53533935546875
 30
0.0
  0
HATCH
  5
AB
330
70
100
AcDbEntity
  8
레이어 1
 62
     7
420
 16508655
440
 33554687
100
AcDbHatch
 10
0.0
 20
0.0
 30
0.0
210
0.0
220
0.0
230
1.0
  2
SOLID
 70
     1
 71
     1
 91
        1
 92
        1
 93
        1
 72
     4
 94
        3
 73
     0
 74
     0
 95
       14
 96
       10
 40
0.0
 40
0.0
 40
0.0
 40
0.0
 40
1.0
 40
1.0
 40
1.0
 40
2.0
 40
2.0
 40
2.0
 40
3.0
 40
3.0
 40
3.0
 40
3.0
 10
-1.248046875
 20
-27.53533935546875
 10
-1.248046875
 20
-28.224609375
 10
-0.68927001953125
 20
-28.78338623046875
 10
0.0
 20
-28.78338623046875
 10
0.0
 20
-28.78338623046875
 10
0.0
 20
-26.28729248046875
 10
0.0
 20
-26.28729248046875
 10
-0.68927001953125
 20
-26.28729248046875
 10
-1.248046875
 20
-26.8460693359375
 10
-1.248046875
 20
-27.53533935546875
 97
        0
 97
        1
330
AA
 75
     2
 76
     1
 98
        1
 10
0.0
 20
0.0
450
        0
451
        0
460
0.0
461
0.0
452
        0
462
0.0
453
        0
470

  0
SPLINE
  5
AC
330
70
100
AcDbEntity
  8
레이어 1
 62
   250
420
  2299925
370
     9
100
AcDbSpline
210
0.0
220
0.0
230
1.0
 70
     9
 71
     3
 72
    14
 73
    10
 74
     0
 42
0.0000000001
 43
0.0000000001
 40
0.0
 40
0.0
 40
0.0
 40
0.0
 40
1.0
 40
1.0
 40
1.0
 40
2.0
 40
2.0
 40
2.0
 40
3.0
 40
3.0
 40
3.0
 40
3.0
 10
-1.248046875
 20
-31.934814453125
 30
0.0
 10
-1.248046875
 20
-32.62408447265625
 30
0.0
 10
-0.68927001953125
 20
-33.182861328125
 30
0.0
 10
0.0
 20
-33.182861328125
 30
0.0
 10
0.0
 20
-33.182861328125
 30
0.0
 10
0.0
 20
-30.68670654296875
 30
0.0
 10
0.0
 20
-30.68670654296875
 30
0.0
 10
-0.68927001953125
 20
-30.68670654296875
 30
0.0
 10
-1.248046875
 20
-31.2454833984375
 30
0.0
 10
-1.248046875
 20
-31.934814453125
 30
0.0
  0
HATCH
  5
AD
330
70
100
AcDbEntity
  8
레이어 1
 62
     7
420
 16508655
440
 33554687
100
AcDbHatch
 10
0.0
 20
0.0
 30
0.0
210
0.0
220
0.0
230
1.0
  2
SOLID
 70
     1
 71
     1
 91
        1
 92
        1
 93
        1
 72
     4
 94
        3
 73
     0
 74
     0
 95
       14
 96
       10
 40
0.0
 40
0.0
 40
0.0
 40
0.0
 40
1.0
 40
1.0
 40
1.0
 40
2.0
 40
2.0
 40
2.0
 40
3.0
 40
3.0
 40
3.0
 40
3.0
 10
-1.248046875
 20
-31.934814453125
 10
-1.248046875
 20
-32.62408447265625
 10
-0.68927001953125
 20
-33.182861328125
 10
0.0
 20
-33.182861328125
 10
0.0
 20
-33.182861328125
 10
0.0
 20
-30.68670654296875
 10
0.0
 20
-30.68670654296875
 10
-0.68927001953125
 20
-30.68670654296875
 10
-1.248046875
 20
-31.2454833984375
 10
-1.248046875
 20
-31.934814453125
 97
        0
 97
        1
330
AC
 75
     2
 76
     1
 98
        1
 10
0.0
 20
0.0
450
        0
451
        0
460
0.0
461
0.0
452
        0
462
0.0
453
        0
470

  0
SPLINE
  5
AE
330
70
100
AcDbEntity
  8
레이어 1
 62
   250
420
  2299925
370
     9
100
AcDbSpline
210
0.0
220
0.0
230
1.0
 70
     9
 71
     3
 72
    14
 73
    10
 74
     0
 42
0.0000000001
 43
0.0000000001
 40
0.0
 40
0.0
 40
0.0
 40
0.0
 40
1.0
 40
1.0
 40
1.0
 40
2.0
 40
2.0
 40
2.0
 40
3.0
 40
3.0
 40
3.0
 40
3.0
 10
4.49676513671875
 20
-56.6787847345513
 30
0.0
 10
4.49676513671875
 20
-55.9894536798638
 30
0.0
 10
3.93798828125
 20
-55.43067682439505
 30
0.0
 10
3.24871826171875
 20
-55.43067682439505
 30
0.0
 10
3.24871826171875
 20
-55.43067682439505
 30
0.0
 10
3.24871826171875
 20
-57.9268316095513
 30
0.0
 10
3.24871826171875
 20
-57.9268316095513
 30
0.0
 10
3.93798828125
 20
-57.9268316095513
 30
0.0
 10
4.49676513671875
 20
-57.36805475408255
 30
0.0
 10
4.49676513671875
 20
-56.6787847345513
 30
0.0
  0
HATCH
  5
AF
330
70
100
AcDbEntity
  8
레이어 1
 62
     7
420
 16508655
440
 33554687
100
AcDbHatch
 10
0.0
 20
0.0
 30
0.0
210
0.0
220
0.0
230
1.0
  2
SOLID
 70
     1
 71
     1
 91
        1
 92
        1
 93
        1
 72
     4
 94
        3
 73
     0
 74
     0
 95
       14
 96
       10
 40
0.0
 40
0.0
 40
0.0
 40
0.0
 40
1.0
 40
1.0
 40
1.0
 40
2.0
 40
2.0
 40
2.0
 40
3.0
 40
3.0
 40
3.0
 40
3.0
 10
4.49676513671875
 20
-56.6787847345513
 10
4.49676513671875
 20
-55.9894536798638
 10
3.93798828125
 20
-55.43067682439505
 10
3.24871826171875
 20
-55.43067682439505
 10
3.24871826171875
 20
-55.43067682439505
 10
3.24871826171875
 20
-57.9268316095513
 10
3.24871826171875
 20
-57.9268316095513
 10
3.93798828125
 20
-57.9268316095513
 10
4.49676513671875
 20
-57.36805475408255
 10
4.49676513671875
 20
-56.6787847345513
 97
        0
 97
        1
330
AE
 75
     2
 76
     1
 98
        1
 10
0.0
 20
0.0
450
        0
451
        0
460
0.0
461
0.0
452
        0
462
0.0
453
        0
470

  0
SPLINE
  5
B0
330
70
100
AcDbEntity
  8
레이어 1
 62
   250
420
  2299925
370
     9
100
AcDbSpline
210
0.0
220
0.0
230
1.0
 70
     9
 71
     3
 72
    14
 73
    10
 74
     0
 42
0.0000000001
 43
0.0000000001
 40
0.0
 40
0.0
 40
0.0
 40
0.0
 40
1.0
 40
1.0
 40
1.0
 40
2.0
 40
2.0
 40
2.0
 40
3.0
 40
3.0
 40
3.0
 40
3.0
 10
-1.248046875
 20
-36.3245849609375
 30
0.0
 10
-1.248046875
 20
-37.013916015625
 30
0.0
 10
-0.68927001953125
 20
-37.57269287109375
 30
0.0
 10
0.0
 20
-37.57269287109375
 30
0.0
 10
0.0
 20
-37.57269287109375
 30
0.0
 10
0.0
 20
-35.0765380859375
 30
0.0
 10
0.0
 20
-35.0765380859375
 30
0.0
 10
-0.68927001953125
 20
-35.0765380859375
 30
0.0
 10
-1.248046875
 20
-35.63531494140625
 30
0.0
 10
-1.248046875
 20
-36.3245849609375
 30
0.0
  0
HATCH
  5
B1
330
70
100
AcDbEntity
  8
레이어 1
 62
     7
420
 16508655
440
 33554687
100
AcDbHatch
 10
0.0
 20
0.0
 30
0.0
210
0.0
220
0.0
230
1.0
  2
SOLID
 70
     1
 71
     1
 91
        1
 92
        1
 93
        1
 72
     4
 94
        3
 73
     0
 74
     0
 95
       14
 96
       10
 40
0.0
 40
0.0
 40
0.0
 40
0.0
 40
1.0
 40
1.0
 40
1.0
 40
2.0
 40
2.0
 40
2.0
 40
3.0
 40
3.0
 40
3.0
 40
3.0
 10
-1.248046875
 20
-36.3245849609375
 10
-1.248046875
 20
-37.013916015625
 10
-0.68927001953125
 20
-37.57269287109375
 10
0.0
 20
-37.57269287109375
 10
0.0
 20
-37.57269287109375
 10
0.0
 20
-35.0765380859375
 10
0.0
 20
-35.0765380859375
 10
-0.68927001953125
 20
-35.0765380859375
 10
-1.248046875
 20
-35.63531494140625
 10
-1.248046875
 20
-36.3245849609375
 97
        0
 97
        1
330
B0
 75
     2
 76
     1
 98
        1
 10
0.0
 20
0.0
450
        0
451
        0
460
0.0
461
0.0
452
        0
462
0.0
453
        0
470

  0
SPLINE
  5
B2
330
70
100
AcDbEntity
  8
레이어 1
 62
   250
420
  2299925
370
     9
100
AcDbSpline
210
0.0
220
0.0
230
1.0
 70
     9
 71
     3
 72
    14
 73
    10
 74
     0
 42
0.0000000001
 43
0.0000000001
 40
0.0
 40
0.0
 40
0.0
 40
0.0
 40
1.0
 40
1.0
 40
1.0
 40
2.0
 40
2.0
 40
2.0
 40
3.0
 40
3.0
 40
3.0
 40
3.0
 10
1.8720703125
 20
-59.8726823286579
 30
0.0
 10
1.8720703125
 20
-59.18341230912665
 30
0.0
 10
1.31329345703125
 20
-58.6246354536579
 30
0.0
 10
0.6240234375
 20
-58.6246354536579
 30
0.0
 10
0.6240234375
 20
-58.6246354536579
 30
0.0
 10
0.6240234375
 20
-61.12079023881415
 30
0.0
 10
0.6240234375
 20
-61.12079023881415
 30
0.0
 10
1.31329345703125
 20
-61.12079023881415
 30
0.0
 10
1.8720703125
 20
-60.5620133833454
 30
0.0
 10
1.8720703125
 20
-59.8726823286579
 30
0.0
  0
HATCH
  5
B3
330
70
100
AcDbEntity
  8
레이어 1
 62
     7
420
 16508655
440
 33554687
100
AcDbHatch
 10
0.0
 20
0.0
 30
0.0
210
0.0
220
0.0
230
1.0
  2
SOLID
 70
     1
 71
     1
 91
        1
 92
        1
 93
        1
 72
     4
 94
        3
 73
     0
 74
     0
 95
       14
 96
       10
 40
0.0
 40
0.0
 40
0.0
 40
0.0
 40
1.0
 40
1.0
 40
1.0
 40
2.0
 40
2.0
 40
2.0
 40
3.0
 40
3.0
 40
3.0
 40
3.0
 10
1.8720703125
 20
-59.8726823286579
 10
1.8720703125
 20
-59.18341230912665
 10
1.31329345703125
 20
-58.6246354536579
 10
0.6240234375
 20
-58.6246354536579
 10
0.6240234375
 20
-58.6246354536579
 10
0.6240234375
 20
-61.12079023881415
 10
0.6240234375
 20
-61.12079023881415
 10
1.31329345703125
 20
-61.12079023881415
 10
1.8720703125
 20
-60.5620133833454
 10
1.8720703125
 20
-59.8726823286579
 97
        0
 97
        1
330
B2
 75
     2
 76
     1
 98
        1
 10
0.0
 20
0.0
450
        0
451
        0
460
0.0
461
0.0
452
        0
462
0.0
453
        0
470

  0
SPLINE
  5
B4
330
70
100
AcDbEntity
  8
레이어 1
 62
   250
420
  2299925
370
     9
100
AcDbSpline
210
0.0
220
0.0
230
1.0
 70
    11
 71
     3
 72
    14
 73
    10
 74
     0
 42
0.0000000001
 43
0.0000000001
 40
0.0
 40
0.0
 40
0.0
 40
0.0
 40
1.0
 40
1.0
 40
1.0
 40
2.0
 40
2.0
 40
2.0
 40
3.0
 40
3.0
 40
3.0
 40
3.0
 10
-1.248046875
 20
-40.04888916015625
 30
0.0
 10
-1.248046875
 20
-40.7381591796875
 30
0.0
 10
-0.68927001953125
 20
-41.29693603515625
 30
0.0
 10
0.0
 20
-41.29693603515625
 30
0.0
 10
0.0
 20
-41.29693603515625
 30
0.0
 10
0.0
 20
-38.80084228515625
 30
0.0
 10
0.0
 20
-38.80084228515625
 30
0.0
 10
-0.68927001953125
 20
-38.80084228515625
 30
0.0
 10
-1.248046875
 20
-39.359619140625
 30
0.0
 10
-1.248046875
 20
-40.04888916015625
 30
0.0
  0
HATCH
  5
B5
330
70
100
AcDbEntity
  8
레이어 1
 62
     7
420
 16508655
440
 33554687
100
AcDbHatch
 10
0.0
 20
0.0
 30
0.0
210
0.0
220
0.0
230
1.0
  2
SOLID
 70
     1
 71
     1
 91
        1
 92
        1
 93
        1
 72
     4
 94
        3
 73
     0
 74
     0
 95
       14
 96
       10
 40
0.0
 40
0.0
 40
0.0
 40
0.0
 40
1.0
 40
1.0
 40
1.0
 40
2.0
 40
2.0
 40
2.0
 40
3.0
 40
3.0
 40
3.0
 40
3.0
 10
-1.248046875
 20
-40.04888916015625
 10
-1.248046875
 20
-40.7381591796875
 10
-0.68927001953125
 20
-41.29693603515625
 10
0.0
 20
-41.29693603515625
 10
0.0
 20
-41.29693603515625
 10
0.0
 20
-38.80084228515625
 10
0.0
 20
-38.80084228515625
 10
-0.68927001953125
 20
-38.80084228515625
 10
-1.248046875
 20
-39.359619140625
 10
-1.248046875
 20
-40.04888916015625
 97
        0
 97
        1
330
B4
 75
     2
 76
     1
 98
        1
 10
0.0
 20
0.0
450
        0
451
        0
460
0.0
461
0.0
452
        0
462
0.0
453
        0
470

  0
SPLINE
  5
B6
330
70
100
AcDbEntity
  8
레이어 1
 62
   250
420
  2299925
370
     9
100
AcDbSpline
210
0.0
220
0.0
230
1.0
 70
    11
 71
     3
 72
    14
 73
    10
 74
     0
 42
0.0000000001
 43
0.0000000001
 40
0.0
 40
0.0
 40
0.0
 40
0.0
 40
1.0
 40
1.0
 40
1.0
 40
2.0
 40
2.0
 40
2.0
 40
3.0
 40
3.0
 40
3.0
 40
3.0
 10
-1.248046875
 20
-55.43070734197318
 30
0.0
 10
-1.248046875
 20
-54.74143732244193
 30
0.0
 10
-1.80682373046875
 20
-54.18266046697318
 30
0.0
 10
-2.49609375
 20
-54.18266046697318
 30
0.0
 10
-2.49609375
 20
-54.18266046697318
 30
0.0
 10
-2.49609375
 20
-56.67875421697317
 30
0.0
 10
-2.49609375
 20
-56.67875421697317
 30
0.0
 10
-1.80682373046875
 20
-56.67875421697317
 30
0.0
 10
-1.248046875
 20
-56.11997736150442
 30
0.0
 10
-1.248046875
 20
-55.43070734197318
 30
0.0
  0
HATCH
  5
B7
330
70
100
AcDbEntity
  8
레이어 1
 62
     7
420
 16508655
440
 33554687
100
AcDbHatch
 10
0.0
 20
0.0
 30
0.0
210
0.0
220
0.0
230
1.0
  2
SOLID
 70
     1
 71
     1
 91
        1
 92
        1
 93
        1
 72
     4
 94
        3
 73
     0
 74
     0
 95
       14
 96
       10
 40
0.0
 40
0.0
 40
0.0
 40
0.0
 40
1.0
 40
1.0
 40
1.0
 40
2.0
 40
2.0
 40
2.0
 40
3.0
 40
3.0
 40
3.0
 40
3.0
 10
-1.248046875
 20
-55.43070734197318
 10
-1.248046875
 20
-54.74143732244193
 10
-1.80682373046875
 20
-54.18266046697318
 10
-2.49609375
 20
-54.18266046697318
 10
-2.49609375
 20
-54.18266046697318
 10
-2.49609375
 20
-56.67875421697317
 10
-2.49609375
 20
-56.67875421697317
 10
-1.80682373046875
 20
-56.67875421697317
 10
-1.248046875
 20
-56.11997736150442
 10
-1.248046875
 20
-55.43070734197318
 97
        0
 97
        1
330
B6
 75
     2
 76
     1
 98
        1
 10
0.0
 20
0.0
450
        0
451
        0
460
0.0
461
0.0
452
        0
462
0.0
453
        0
470

  0
SPLINE
  5
B8
330
70
100
AcDbEntity
  8
레이어 1
 62
   250
420
  2299925
370
     9
100
AcDbSpline
210
0.0
220
0.0
230
1.0
 70
     9
 71
     3
 72
    14
 73
    10
 74
     0
 42
0.0000000001
 43
0.0000000001
 40
0.0
 40
0.0
 40
0.0
 40
0.0
 40
1.0
 40
1.0
 40
1.0
 40
2.0
 40
2.0
 40
2.0
 40
3.0
 40
3.0
 40
3.0
 40
3.0
 10
-1.248046875
 20
-43.773193359375
 30
0.0
 10
-1.248046875
 20
-44.46246337890625
 30
0.0
 10
-0.68927001953125
 20
-45.021240234375
 30
0.0
 10
0.0
 20
-45.021240234375
 30
0.0
 10
0.0
 20
-45.021240234375
 30
0.0
 10
0.0
 20
-42.52508544921875
 30
0.0
 10
0.0
 20
-42.52508544921875
 30
0.0
 10
-0.68927001953125
 20
-42.52508544921875
 30
0.0
 10
-1.248046875
 20
-43.0838623046875
 30
0.0
 10
-1.248046875
 20
-43.773193359375
 30
0.0
  0
HATCH
  5
B9
330
70
100
AcDbEntity
  8
레이어 1
 62
     7
420
 16508655
440
 33554687
100
AcDbHatch
 10
0.0
 20
0.0
 30
0.0
210
0.0
220
0.0
230
1.0
  2
SOLID
 70
     1
 71
     1
 91
        1
 92
        1
 93
        1
 72
     4
 94
        3
 73
     0
 74
     0
 95
       14
 96
       10
 40
0.0
 40
0.0
 40
0.0
 40
0.0
 40
1.0
 40
1.0
 40
1.0
 40
2.0
 40
2.0
 40
2.0
 40
3.0
 40
3.0
 40
3.0
 40
3.0
 10
-1.248046875
 20
-43.773193359375
 10
-1.248046875
 20
-44.46246337890625
 10
-0.68927001953125
 20
-45.021240234375
 10
0.0
 20
-45.021240234375
 10
0.0
 20
-45.021240234375
 10
0.0
 20
-42.52508544921875
 10
0.0
 20
-42.52508544921875
 10
-0.68927001953125
 20
-42.52508544921875
 10
-1.248046875
 20
-43.0838623046875
 10
-1.248046875
 20
-43.773193359375
 97
        0
 97
        1
330
B8
 75
     2
 76
     1
 98
        1
 10
0.0
 20
0.0
450
        0
451
        0
460
0.0
461
0.0
452
        0
462
0.0
453
        0
470

  0
SPLINE
  5
BA
330
70
100
AcDbEntity
  8
레이어 1
 62
   250
420
  2299925
370
     9
100
AcDbSpline
210
0.0
220
0.0
230
1.0
 70
     9
 71
     3
 72
    14
 73
    10
 74
     0
 42
0.0000000001
 43
0.0000000001
 40
0.0
 40
0.0
 40
0.0
 40
0.0
 40
1.0
 40
1.0
 40
1.0
 40
2.0
 40
2.0
 40
2.0
 40
3.0
 40
3.0
 40
3.0
 40
3.0
 10
1.248046875
 20
-56.18184481534081
 30
0.0
 10
1.248046875
 20
-55.49251376065331
 30
0.0
 10
0.68927001953125
 20
-54.93373690518456
 30
0.0
 10
0.0
 20
-54.93373690518456
 30
0.0
 10
0.0
 20
-54.93373690518456
 30
0.0
 10
0.0
 20
-57.42989169034081
 30
0.0
 10
0.0
 20
-57.42989169034081
 30
0.0
 10
0.68927001953125
 20
-57.42989169034081
 30
0.0
 10
1.248046875
 20
-56.87111483487206
 30
0.0
 10
1.248046875
 20
-56.18184481534081
 30
0.0
  0
HATCH
  5
BB
330
70
100
AcDbEntity
  8
레이어 1
 62
     7
420
 16508655
440
 33554687
100
AcDbHatch
 10
0.0
 20
0.0
 30
0.0
210
0.0
220
0.0
230
1.0
  2
SOLID
 70
     1
 71
     1
 91
        1
 92
        1
 93
        1
 72
     4
 94
        3
 73
     0
 74
     0
 95
       14
 96
       10
 40
0.0
 40
0.0
 40
0.0
 40
0.0
 40
1.0
 40
1.0
 40
1.0
 40
2.0
 40
2.0
 40
2.0
 40
3.0
 40
3.0
 40
3.0
 40
3.0
 10
1.248046875
 20
-56.18184481534081
 10
1.248046875
 20
-55.49251376065331
 10
0.68927001953125
 20
-54.93373690518456
 10
0.0
 20
-54.93373690518456
 10
0.0
 20
-54.93373690518456
 10
0.0
 20
-57.42989169034081
 10
0.0
 20
-57.42989169034081
 10
0.68927001953125
 20
-57.42989169034081
 10
1.248046875
 20
-56.87111483487206
 10
1.248046875
 20
-56.18184481534081
 97
        0
 97
        1
330
BA
 75
     2
 76
     1
 98
        1
 10
0.0
 20
0.0
450
        0
451
        0
460
0.0
461
0.0
452
        0
462
0.0
453
        0
470

  0
LINE
  5
BC
330
70
100
AcDbEntity
  8
레이어 1
 62
   250
420
  2299925
370
     9
100
AcDbLine
 10
15.39999999999145
 20
-23.0601477428072
 30
0.0
 11
15.39999999999145
 21
-40.97213985484995
 31
0.0
  0
LINE
  5
BD
330
70
100
AcDbEntity
  8
레이어 1
 62
   250
420
  2299925
370
     9
100
AcDbLine
 10
84.56363636362766
 20
-21.81207035022908
 30
0.0
 11
84.56363636362766
 21
-39.72406246227183
 31
0.0
  0
CIRCLE
  5
BE
330
70
100
AcDbEntity
  8
레이어 1
100
AcDbCircle
 10
13.41365439674632
 20
-3.272682883523202
 30
0.0
 40
7.604541847918426
  0
HATCH
  5
BF
330
70
100
AcDbEntity
  8
레이어 1
 62
   250
420
  2299925
440
 33554687
100
AcDbHatch
 10
0.0
 20
0.0
 30
0.0
210
0.0
220
0.0
230
1.0
  2
SOLID
 70
     1
 71
     1
 91
        1
 92
        1
 93
        1
 72
     2
 10
13.41365439674632
 20
-3.272682883523202
 40
7.604541847918426
 50
0.0
 51
360.0
 73
     1
 97
        1
330
BE
 75
     2
 76
     1
 98
        1
 10
0.0
 20
0.0
450
        0
451
        0
460
0.0
461
0.0
452
        0
462
0.0
453
        0
470

  0
MTEXT
  5
C0
330
70
100
AcDbEntity
  8
레이어 1
100
AcDbMText
 10
8.418181896209716
 20
-3.993396759033203
 30
0.0
 40
0.2
 41
0.0
 46
0.0
 71
     7
 72
     1
  1
\C7;\c16777215;\FAdobe Myungjo Std M|b0|i0|c129;\H1.846285;\W1.000000;coupon
 73
     1
 44
1.0
  0
ENDSEC
  0
SECTION
  2
OBJECTS
  0
DICTIONARY
  5
C
330
0
100
AcDbDictionary
281
     1
  3
ACAD_COLOR
350
63
  3
ACAD_DETAILVIEWSTYLE
350
6A
  3
ACAD_GROUP
350
D
  3
ACAD_LAYOUT
350
62
  3
ACAD_MATERIAL
350
10
  3
ACAD_MLEADERSTYLE
350
66
  3
ACAD_MLINESTYLE
350
5F
  3
ACAD_PLOTSETTINGS
350
61
  3
ACAD_PLOTSTYLENAME
350
E
  3
ACAD_SCALELIST
350
42
  3
ACAD_SECTIONVIEWSTYLE
350
68
  3
ACAD_TABLESTYLE
350
64
  3
ACAD_VISUALSTYLE
350
29
  3
ACDB_RECOMPOSE_DATA
350
C9
  3
AcDbVariableDictionary
350
C1
  0
DICTIONARY
  5
63
102
{ACAD_REACTORS
330
C
102
}
330
C
100
AcDbDictionary
281
     1
  0
DICTIONARY
  5
6A
102
{ACAD_REACTORS
330
C
102
}
330
C
100
AcDbDictionary
281
     1
  3
Imperial24
350
6B
  0
DICTIONARY
  5
D
102
{ACAD_REACTORS
330
C
102
}
330
C
100
AcDbDictionary
281
     1
  0
DICTIONARY
  5
62
102
{ACAD_REACTORS
330
C
102
}
330
C
100
AcDbDictionary
281
     1
  3
Layout1
350
6F
  3
Layout2
350
77
  3
Model
350
73
  0
DICTIONARY
  5
10
102
{ACAD_REACTORS
330
C
102
}
330
C
100
AcDbDictionary
281
     1
  3
ByBlock
350
19
  3
ByLayer
350
11
  3
Global
350
21
  0
DICTIONARY
  5
66
102
{ACAD_REACTORS
330
C
102
}
330
C
100
AcDbDictionary
281
     1
  3
Standard
350
67
  0
DICTIONARY
  5
5F
102
{ACAD_REACTORS
330
C
102
}
330
C
100
AcDbDictionary
281
     1
  3
Standard
350
60
  0
DICTIONARY
  5
61
102
{ACAD_REACTORS
330
C
102
}
330
C
100
AcDbDictionary
281
     1
  0
ACDBDICTIONARYWDFLT
  5
E
102
{ACAD_REACTORS
330
C
102
}
330
C
100
AcDbDictionary
281
     1
  3
Normal
350
F
100
AcDbDictionaryWithDefault
340
F
  0
DICTIONARY
  5
42
102
{ACAD_REACTORS
330
C
102
}
330
C
100
AcDbDictionary
281
     1
  3
A0
350
43
  3
A1
350
44
  3
A2
350
45
  3
A3
350
46
  3
A4
350
47
  3
A5
350
48
  3
A6
350
49
  3
A7
350
4A
  3
A8
350
4B
  3
A9
350
4C
  3
B0
350
4D
  3
B1
350
4E
  3
B2
350
4F
  3
B3
350
50
  3
B4
350
51
  3
B5
350
52
  3
B6
350
53
  0
DICTIONARY
  5
68
102
{ACAD_REACTORS
330
C
102
}
330
C
100
AcDbDictionary
281
     1
  3
Imperial24
350
69
  0
DICTIONARY
  5
64
102
{ACAD_REACTORS
330
C
102
}
330
C
100
AcDbDictionary
281
     1
  3
Standard
350
65
  0
DICTIONARY
  5
29
102
{ACAD_REACTORS
330
C
102
}
330
C
100
AcDbDictionary
281
     1
  3
2dWireframe
350
2F
  3
Basic
350
2E
  3
Brighten
350
35
  3
ColorChange
350
39
  3
Conceptual
350
32
  3
Dim
350
34
  3
EdgeColorOff
350
41
  3
Facepattern
350
38
  3
Flat
350
2A
  3
FlatWithEdges
350
2B
  3
Gouraud
350
2C
  3
GouraudWithEdges
350
2D
  3
Hidden
350
31
  3
JitterOff
350
3F
  3
Linepattern
350
37
  3
OverhangOff
350
40
  3
Realistic
350
33
  3
Shaded
350
3E
  3
Shaded with edges
350
3D
  3
Shades of Gray
350
3A
  3
Sketchy
350
3B
  3
Thicken
350
36
  3
Wireframe
350
30
  3
X-Ray
350
3C
  0
XRECORD
  5
C9
102
{ACAD_REACTORS
330
C
102
}
330
C
100
AcDbXrecord
280
     1
 90
        1
330
65
  0
DICTIONARY
  5
C1
102
{ACAD_REACTORS
330
C
102
}
330
C
100
AcDbDictionary
281
     1
  3
CANNOSCALE
350
C6
  3
CMLEADERSTYLE
350
C3
  3
CTABLESTYLE
350
C2
  3
CVIEWDETAILSTYLE
350
C4
  3
CVIEWSECTIONSTYLE
350
C5
  0
ACDBDETAILVIEWSTYLE
  5
6B
102
{ACAD_REACTORS
330
6A
102
}
330
6A
100
AcDbModelDocViewStyle
 70
     0
  3
Imperial24
290
     1
300
Imperial24
 90
        0
100
AcDbDetailViewStyle
 70
     0
 71
     0
 90
        3
 71
     1
340
55
 62
   256
 40
0.24
340
0
 62
   256
 40
0.24
300

 40
0.36
280
     3
 71
     2
340
5D
 90
       25
 62
   256
 71
     3
340
55
 62
   256
 40
0.24
 90
        1
 40
0.75
 90
        1
300
%<\AcVar ViewType \f "%tc1">% %<\AcVar ViewDetailId>%\PSCALE %<\AcVar ViewScale \f "%sn">%
 71
     4
340
5D
 90
       25
 62
   256
340
5D
 90
       25
 62
   256
280
     0
  0
LAYOUT
  5
6F
102
{ACAD_REACTORS
330
62
102
}
330
62
100
AcDbPlotSettings
  1

  2

  4

  6

 40
0.0
 41
0.0
 42
0.0
 43
0.0
 44
0.0
 45
0.0
 46
0.0
 47
0.0
 48
0.0
 49
0.0
140
0.0
141
0.0
142
1.0
143
1.0
 70
   688
 72
     0
 73
     0
 74
     5
  7

 75
    16
147
1.0
 76
     0
 77
     2
 78
   300
148
0.0
149
0.0
100
AcDbLayout
  1
Layout1
 70
     1
 71
     1
 10
0.0
 20
0.0
 11
12.0
 21
9.0
 12
0.0
 22
0.0
 32
0.0
 14
0.0
 24
0.0
 34
0.0
 15
0.0
 25
0.0
 35
0.0
146
0.0
 13
0.0
 23
0.0
 33
0.0
 16
1.0
 26
0.0
 36
0.0
 17
0.0
 27
1.0
 37
0.0
 76
     0
330
6C
  0
LAYOUT
  5
77
102
{ACAD_REACTORS
330
62
102
}
330
62
100
AcDbPlotSettings
  1

  2

  4

  6

 40
0.0
 41
0.0
 42
0.0
 43
0.0
 44
0.0
 45
0.0
 46
0.0
 47
0.0
 48
0.0
 49
0.0
140
0.0
141
0.0
142
1.0
143
1.0
 70
   688
 72
     0
 73
     0
 74
     5
  7

 75
    16
147
1.0
 76
     0
 77
     2
 78
   300
148
0.0
149
0.0
100
AcDbLayout
  1
Layout2
 70
     1
 71
     2
 10
0.0
 20
0.0
 11
12.0
 21
9.0
 12
0.0
 22
0.0
 32
0.0
 14
0.0
 24
0.0
 34
0.0
 15
0.0
 25
0.0
 35
0.0
146
0.0
 13
0.0
 23
0.0
 33
0.0
 16
1.0
 26
0.0
 36
0.0
 17
0.0
 27
1.0
 37
0.0
 76
     0
330
74
  0
LAYOUT
  5
73
102
{ACAD_REACTORS
330
62
102
}
330
62
100
AcDbPlotSettings
  1

  2

  4

  6

 40
0.0
 41
0.0
 42
0.0
 43
0.0
 44
0.0
 45
0.0
 46
0.0
 47
0.0
 48
0.0
 49
0.0
140
0.0
141
0.0
142
1.0
143
1.0
 70
  1712
 72
     0
 73
     0
 74
     0
  7

 75
     0
147
1.0
 76
     0
 77
     2
 78
   300
148
0.0
149
0.0
100
AcDbLayout
  1
Model
 70
     1
 71
     0
 10
0.0
 20
0.0
 11
12.0
 21
9.0
 12
0.0
 22
0.0
 32
0.0
 14
0.0
 24
0.0
 34
0.0
 15
0.0
 25
0.0
 35
0.0
146
0.0
 13
0.0
 23
0.0
 33
0.0
 16
1.0
 26
0.0
 36
0.0
 17
0.0
 27
1.0
 37
0.0
 76
     0
330
70
  0
MATERIAL
  5
19
102
{ACAD_XDICTIONARY
360
1A
102
}
102
{ACAD_REACTORS
330
10
102
}
330
10
100
AcDbMaterial
  1
ByBlock
 72
     0
 43
0.0208333333333333
 43
0.0
 43
0.0
 43
0.0
 43
0.0
 43
0.0208333333333333
 43
0.0
 43
0.0
 43
0.0
 43
0.0
 43
1.0
 43
0.0
 43
0.0
 43
0.0
 43
0.0
 43
1.0
 77
     0
 47
0.0208333333333333
 47
0.0
 47
0.0
 47
0.0
 47
0.0
 47
0.0208333333333333
 47
0.0
 47
0.0
 47
0.0
 47
0.0
 47
1.0
 47
0.0
 47
0.0
 47
0.0
 47
0.0
 47
1.0
171
     0
 49
0.0208333333333333
 49
0.0
 49
0.0
 49
0.0
 49
0.0
 49
0.0208333333333333
 49
0.0
 49
0.0
 49
0.0
 49
0.0
 49
1.0
 49
0.0
 49
0.0
 49
0.0
 49
0.0
 49
1.0
175
     0
142
0.0208333333333333
142
0.0
142
0.0
142
0.0
142
0.0
142
0.0208333333333333
142
0.0
142
0.0
142
0.0
142
0.0
142
1.0
142
0.0
142
0.0
142
0.0
142
0.0
142
1.0
179
     0
144
0.0208333333333333
144
0.0
144
0.0
144
0.0
144
0.0
144
0.0208333333333333
144
0.0
144
0.0
144
0.0
144
0.0
144
1.0
144
0.0
144
0.0
144
0.0
144
0.0
144
1.0
147
0.0208333333333333
147
0.0
147
0.0
147
0.0
147
0.0
147
0.0208333333333333
147
0.0
147
0.0
147
0.0
147
0.0
147
1.0
147
0.0
147
0.0
147
0.0
147
0.0
147
1.0
  0
MATERIAL
  5
11
102
{ACAD_XDICTIONARY
360
12
102
}
102
{ACAD_REACTORS
330
10
102
}
330
10
100
AcDbMaterial
  1
ByLayer
 72
     0
 43
0.0208333333333333
 43
0.0
 43
0.0
 43
0.0
 43
0.0
 43
0.0208333333333333
 43
0.0
 43
0.0
 43
0.0
 43
0.0
 43
1.0
 43
0.0
 43
0.0
 43
0.0
 43
0.0
 43
1.0
 77
     0
 47
0.0208333333333333
 47
0.0
 47
0.0
 47
0.0
 47
0.0
 47
0.0208333333333333
 47
0.0
 47
0.0
 47
0.0
 47
0.0
 47
1.0
 47
0.0
 47
0.0
 47
0.0
 47
0.0
 47
1.0
171
     0
 49
0.0208333333333333
 49
0.0
 49
0.0
 49
0.0
 49
0.0
 49
0.0208333333333333
 49
0.0
 49
0.0
 49
0.0
 49
0.0
 49
1.0
 49
0.0
 49
0.0
 49
0.0
 49
0.0
 49
1.0
175
     0
142
0.0208333333333333
142
0.0
142
0.0
142
0.0
142
0.0
142
0.0208333333333333
142
0.0
142
0.0
142
0.0
142
0.0
142
1.0
142
0.0
142
0.0
142
0.0
142
0.0
142
1.0
179
     0
144
0.0208333333333333
144
0.0
144
0.0
144
0.0
144
0.0
144
0.0208333333333333
144
0.0
144
0.0
144
0.0
144
0.0
144
1.0
144
0.0
144
0.0
144
0.0
144
0.0
144
1.0
147
0.0208333333333333
147
0.0
147
0.0
147
0.0
147
0.0
147
0.0208333333333333
147
0.0
147
0.0
147
0.0
147
0.0
147
1.0
147
0.0
147
0.0
147
0.0
147
0.0
147
1.0
  0
MATERIAL
  5
21
102
{ACAD_XDICTIONARY
360
22
102
}
102
{ACAD_REACTORS
330
10
102
}
330
10
100
AcDbMaterial
  1
Global
 72
     0
 43
0.0208333333333333
 43
0.0
 43
0.0
 43
0.0
 43
0.0
 43
0.0208333333333333
 43
0.0
 43
0.0
 43
0.0
 43
0.0
 43
1.0
 43
0.0
 43
0.0
 43
0.0
 43
0.0
 43
1.0
 77
     0
 47
0.0208333333333333
 47
0.0
 47
0.0
 47
0.0
 47
0.0
 47
0.0208333333333333
 47
0.0
 47
0.0
 47
0.0
 47
0.0
 47
1.0
 47
0.0
 47
0.0
 47
0.0
 47
0.0
 47
1.0
171
     0
 49
0.0208333333333333
 49
0.0
 49
0.0
 49
0.0
 49
0.0
 49
0.0208333333333333
 49
0.0
 49
0.0
 49
0.0
 49
0.0
 49
1.0
 49
0.0
 49
0.0
 49
0.0
 49
0.0
 49
1.0
175
     0
142
0.0208333333333333
142
0.0
142
0.0
142
0.0
142
0.0
142
0.0208333333333333
142
0.0
142
0.0
142
0.0
142
0.0
142
1.0
142
0.0
142
0.0
142
0.0
142
0.0
142
1.0
179
     0
144
0.0208333333333333
144
0.0
144
0.0
144
0.0
144
0.0
144
0.0208333333333333
144
0.0
144
0.0
144
0.0
144
0.0
144
1.0
144
0.0
144
0.0
144
0.0
144
0.0
144
1.0
147
0.0208333333333333
147
0.0
147
0.0
147
0.0
147
0.0
147
0.0208333333333333
147
0.0
147
0.0
147
0.0
147
0.0
147
1.0
147
0.0
147
0.0
147
0.0
147
0.0
147
1.0
  0
MLEADERSTYLE
  5
67
102
{ACAD_REACTORS
330
66
102
}
330
66
100
AcDbMLeaderStyle
179
     2
170
     2
171
     1
172
     0
 90
        2
 40
0.0
 41
0.0
173
     1
 91
-1056964608
340
5B
 92
       -2
290
     1
 42
0.09
291
     1
 43
0.36
  3
Standard
 44
0.18
300

342
55
174
     1
178
     6
175
     1
176
     0
 93
-1056964608
 45
0.18
292
     0
297
     0
 46
0.18
 94
-1056964608
 47
1.0
 49
1.0
140
1.0
293
     1
141
0.0
294
     1
177
     0
142
1.0
295
     1
296
     0
143
0.125
271
     0
272
     9
273
     9
298
     1
  0
MLINESTYLE
  5
60
102
{ACAD_REACTORS
330
5F
102
}
330
5F
100
AcDbMlineStyle
  2
STANDARD
 70
     0
  3

 62
   256
 51
90.0
 52
90.0
 71
     2
 49
0.5
 62
   256
  6
BYLAYER
 49
-0.5
 62
   256
  6
BYLAYER
  0
ACDBPLACEHOLDER
  5
F
102
{ACAD_REACTORS
330
E
102
}
330
E
  0
SCALE
  5
43
102
{ACAD_REACTORS
330
42
102
}
330
42
100
AcDbScale
 70
     0
300
1:1
140
1.0
141
1.0
290
     1
  0
SCALE
  5
44
102
{ACAD_REACTORS
330
42
102
}
330
42
100
AcDbScale
 70
     0
300
1/128" = 1'-0"
140
0.0078125
141
12.0
290
     0
  0
SCALE
  5
45
102
{ACAD_REACTORS
330
42
102
}
330
42
100
AcDbScale
 70
     0
300
1/64" = 1'-0"
140
0.015625
141
12.0
290
     0
  0
SCALE
  5
46
102
{ACAD_REACTORS
330
42
102
}
330
42
100
AcDbScale
 70
     0
300
1/32" = 1'-0"
140
0.03125
141
12.0
290
     0
  0
SCALE
  5
47
102
{ACAD_REACTORS
330
42
102
}
330
42
100
AcDbScale
 70
     0
300
1/16" = 1'-0"
140
0.0625
141
12.0
290
     0
  0
SCALE
  5
48
102
{ACAD_REACTORS
330
42
102
}
330
42
100
AcDbScale
 70
     0
300
3/32" = 1'-0"
140
0.09375
141
12.0
290
     0
  0
SCALE
  5
49
102
{ACAD_REACTORS
330
42
102
}
330
42
100
AcDbScale
 70
     0
300
1/8" = 1'-0"
140
0.125
141
12.0
290
     0
  0
SCALE
  5
4A
102
{ACAD_REACTORS
330
42
102
}
330
42
100
AcDbScale
 70
     0
300
3/16" = 1'-0"
140
0.1875
141
12.0
290
     0
  0
SCALE
  5
4B
102
{ACAD_REACTORS
330
42
102
}
330
42
100
AcDbScale
 70
     0
300
1/4" = 1'-0"
140
0.25
141
12.0
290
     0
  0
SCALE
  5
4C
102
{ACAD_REACTORS
330
42
102
}
330
42
100
AcDbScale
 70
     0
300
3/8" = 1'-0"
140
0.375
141
12.0
290
     0
  0
SCALE
  5
4D
102
{ACAD_REACTORS
330
42
102
}
330
42
100
AcDbScale
 70
     0
300
1/2" = 1'-0"
140
0.5
141
12.0
290
     0
  0
SCALE
  5
4E
102
{ACAD_REACTORS
330
42
102
}
330
42
100
AcDbScale
 70
     0
300
3/4" = 1'-0"
140
0.75
141
12.0
290
     0
  0
SCALE
  5
4F
102
{ACAD_REACTORS
330
42
102
}
330
42
100
AcDbScale
 70
     0
300
1" = 1'-0"
140
1.0
141
12.0
290
     0
  0
SCALE
  5
50
102
{ACAD_REACTORS
330
42
102
}
330
42
100
AcDbScale
 70
     0
300
1-1/2" = 1'-0"
140
1.5
141
12.0
290
     0
  0
SCALE
  5
51
102
{ACAD_REACTORS
330
42
102
}
330
42
100
AcDbScale
 70
     0
300
3" = 1'-0"
140
3.0
141
12.0
290
     0
  0
SCALE
  5
52
102
{ACAD_REACTORS
330
42
102
}
330
42
100
AcDbScale
 70
     0
300
6" = 1'-0"
140
6.0
141
12.0
290
     0
  0
SCALE
  5
53
102
{ACAD_REACTORS
330
42
102
}
330
42
100
AcDbScale
 70
     0
300
1'-0" = 1'-0"
140
12.0
141
12.0
290
     0
  0
ACDBSECTIONVIEWSTYLE
  5
69
102
{ACAD_REACTORS
330
68
102
}
330
68
100
AcDbModelDocViewStyle
 70
     0
  3
Imperial24
290
     1
300
Imperial24
 90
        0
100
AcDbSectionViewStyle
 70
     0
 71
     0
 90
       78
 71
     1
340
55
 62
   256
 40
0.24
340
0
340
0
 62
   256
 40
0.24
300
I, O, Q, S, X, Z
 40
0.48
 90
        3
 40
0.18
 90
        1
 71
     2
340
5D
 90
       25
 62
   256
340
5D
 90
       50
 62
   256
 40
0.24
 40
0.0
 40
0.24
 71
     3
340
55
 62
   256
 40
0.24
 90
        1
 40
0.75
 90
        1
300
%<\AcVar ViewType \f "%tc1">% %<\AcVar ViewSectionStartId>%-%<\AcVar ViewSectionEndId>%\PSCALE %<\AcVar ViewScale \f "%sn">%
 71
     4
 62
   256
 62
   257
300
ANSI31
 40
1.0
 90
        0
290
     0
290
     0
 90
        6
 40
0.0
 40
1.570796326794896
 40
0.2617993877991494
 40
1.308996938995747
 40
-0.2617993877991494
 40
1.832595714594046
  0
TABLESTYLE
  5
65
102
{ACAD_XDICTIONARY
360
C7
102
}
102
{ACAD_REACTORS
330
64
102
}
330
64
100
AcDbTableStyle
280
     0
  3
Standard
 70
     0
 71
     0
 40
0.06
 41
0.06
280
     0
281
     0
  7
Standard
140
0.18
170
     2
 62
     0
 63
     7
283
     0
 90
      512
 91
        0
  1

274
    -2
284
     1
 64
     0
275
    -2
285
     1
 65
     0
276
    -2
286
     1
 66
     0
277
    -2
287
     1
 67
     0
278
    -2
288
     1
 68
     0
279
    -2
289
     1
 69
     0
  7
Standard
140
0.25
170
     5
 62
     0
 63
     7
283
     0
 90
      512
 91
        0
  1

274
    -2
284
     1
 64
     0
275
    -2
285
     1
 65
     0
276
    -2
286
     1
 66
     0
277
    -2
287
     1
 67
     0
278
    -2
288
     1
 68
     0
279
    -2
289
     1
 69
     0
  7
Standard
140
0.18
170
     5
 62
     0
 63
     7
283
     0
 90
      512
 91
        0
  1

274
    -2
284
     1
 64
     0
275
    -2
285
     1
 65
     0
276
    -2
286
     1
 66
     0
277
    -2
287
     1
 67
     0
278
    -2
288
     1
 68
     0
279
    -2
289
     1
 69
     0
  0
VISUALSTYLE
  5
2F
102
{ACAD_REACTORS
330
29
102
}
330
29
100
AcDbVisualStyle
  2
2dWireframe
 70
     4
177
     3
291
     0
 70
    58
 90
        0
176
     1
 90
        2
176
     1
 90
        0
176
     1
 90
        0
176
     1
 40
0.6
176
     1
 40
30.0
176
     1
 62
     7
420
 16777215
176
     1
 90
        1
176
     1
 90
        4
176
     1
 62
     7
176
     1
 62
   257
176
     1
 90
        1
176
     1
 90
        1
176
     1
 40
1.0
176
     1
 90
        0
176
     1
 62
   257
176
     1
 40
1.0
176
     1
 90
        1
176
     1
 90
        6
176
     1
 90
        2
176
     1
 62
     7
176
     1
 90
        5
176
     1
 90
        0
176
     1
 90
        0
176
     1
290
     0
176
     1
 90
        1
176
     1
 40
0.0
176
     1
 90
        0
176
     1
290
     1
176
     1
290
     1
176
     1
290
     0
176
     1
290
     0
176
     1
290
     0
176
     1
290
     0
176
     1
290
     0
176
     1
290
     0
176
     1
290
     0
176
     1
 90
       50
176
     1
 40
0.0
176
     1
 40
1.0
176
     1
 90
        0
176
     1
 62
    18
420
        0
176
     1
 90
       50
176
     1
 90
        3
176
     1
 62
     5
420
      255
176
     1
290
     0
176
     1
 90
       50
176
     1
 90
       50
176
     1
 90
       50
176
     1
290
     0
176
     1
 90
       50
176
     1
 62
   256
176
     0
 40
1.0
176
     0
 90
        2
176
     1
  1
strokes_ogs.tif
176
     1
290
     0
176
     1
 40
1.0
176
     1
 40
1.0
176
     1
  0
VISUALSTYLE
  5
2E
102
{ACAD_REACTORS
330
29
102
}
330
29
100
AcDbVisualStyle
  2
Basic
 70
     7
177
     3
291
     1
 70
    58
 90
        1
176
     1
 90
        0
176
     1
 90
        1
176
     1
 90
        0
176
     1
 40
0.6
176
     1
 40
30.0
176
     1
 62
     7
420
 16777215
176
     1
 90
        0
176
     1
 90
        4
176
     1
 62
     7
176
     1
 62
   257
176
     1
 90
        1
176
     1
 90
        1
176
     1
 40
1.0
176
     1
 90
        8
176
     1
 62
     7
176
     1
 40
1.0
176
     1
 90
        1
176
     1
 90
        6
176
     1
 90
        2
176
     1
 62
     7
176
     1
 90
        5
176
     1
 90
        0
176
     1
 90
        0
176
     1
290
     0
176
     1
 90
        1
176
     1
 40
0.0
176
     1
 90
        0
176
     1
290
     0
176
     1
290
     1
176
     1
290
     1
176
     1
290
     0
176
     1
290
     0
176
     1
290
     0
176
     1
290
     0
176
     1
290
     0
176
     1
290
     0
176
     1
 90
       50
176
     1
 40
0.0
176
     1
 40
1.0
176
     1
 90
        0
176
     1
 62
    18
420
        0
176
     1
 90
       50
176
     1
 90
        3
176
     1
 62
     5
420
      255
176
     1
290
     0
176
     1
 90
       50
176
     1
 90
       50
176
     1
 90
       50
176
     1
290
     0
176
     1
 90
       50
176
     1
 62
   256
176
     0
 40
1.0
176
     0
 90
        2
176
     1
  1
strokes_ogs.tif
176
     1
290
     0
176
     1
 40
1.0
176
     1
 40
1.0
176
     1
  0
VISUALSTYLE
  5
35
102
{ACAD_REACTORS
330
29
102
}
330
29
100
AcDbVisualStyle
  2
Brighten
 70
    12
177
     3
291
     1
 70
    58
 90
        2
176
     1
 90
        2
176
     1
 90
        0
176
     1
 90
        0
176
     1
 40
0.6
176
     1
 40
30.0
176
     1
 62
     7
420
 16777215
176
     1
 90
        1
176
     1
 90
        4
176
     1
 62
     7
176
     1
 62
   257
176
     1
 90
        1
176
     1
 90
        1
176
     1
 40
1.0
176
     1
 90
        8
176
     1
 62
     7
176
     1
 40
1.0
176
     1
 90
        1
176
     1
 90
        6
176
     1
 90
        2
176
     1
 62
     7
176
     1
 90
        5
176
     1
 90
        0
176
     1
 90
        0
176
     1
290
     0
176
     1
 90
        1
176
     1
 40
50.0
176
     1
 90
        0
176
     1
290
     0
176
     1
290
     1
176
     1
290
     1
176
     1
290
     0
176
     1
290
     0
176
     1
290
     0
176
     1
290
     0
176
     1
290
     0
176
     1
290
     0
176
     1
 90
       50
176
     1
 40
0.0
176
     1
 40
1.0
176
     1
 90
        0
176
     1
 62
    18
420
        0
176
     1
 90
       50
176
     1
 90
        3
176
     1
 62
     5
420
      255
176
     1
290
     0
176
     1
 90
       50
176
     1
 90
       50
176
     1
 90
       50
176
     1
290
     0
176
     1
 90
       50
176
     1
 62
   256
176
     0
 40
1.0
176
     0
 90
        2
176
     1
  1
strokes_ogs.tif
176
     1
290
     0
176
     1
 40
1.0
176
     1
 40
1.0
176
     1
  0
VISUALSTYLE
  5
39
102
{ACAD_REACTORS
330
29
102
}
330
29
100
AcDbVisualStyle
  2
ColorChange
 70
    16
177
     3
291
     1
 70
    58
 90
        2
176
     1
 90
        2
176
     1
 90
        3
176
     1
 90
        0
176
     1
 40
0.6
176
     1
 40
30.0
176
     1
 62
     8
420
  8421504
176
     1
 90
        1
176
     1
 90
        4
176
     1
 62
     7
176
     1
 62
   257
176
     1
 90
        1
176
     1
 90
        1
176
     1
 40
1.0
176
     1
 90
        8
176
     1
 62
     8
420
  8421504
176
     1
 40
1.0
176
     1
 90
        1
176
     1
 90
        6
176
     1
 90
        2
176
     1
 62
     7
176
     1
 90
        5
176
     1
 90
        0
176
     1
 90
        0
176
     1
290
     0
176
     1
 90
        1
176
     1
 40
0.0
176
     1
 90
        0
176
     1
290
     0
176
     1
290
     1
176
     1
290
     1
176
     1
290
     0
176
     1
290
     0
176
     1
290
     0
176
     1
290
     0
176
     1
290
     0
176
     1
290
     0
176
     1
 90
       50
176
     1
 40
0.0
176
     1
 40
1.0
176
     1
 90
        0
176
     1
 62
    18
420
        0
176
     1
 90
       50
176
     1
 90
        3
176
     1
 62
     5
420
      255
176
     1
290
     0
176
     1
 90
       50
176
     1
 90
       50
176
     1
 90
       50
176
     1
290
     0
176
     1
 90
       50
176
     1
 62
   256
176
     0
 40
1.0
176
     0
 90
        2
176
     1
  1
strokes_ogs.tif
176
     1
290
     0
176
     1
 40
1.0
176
     1
 40
1.0
176
     1
  0
VISUALSTYLE
  5
32
102
{ACAD_REACTORS
330
29
102
}
330
29
100
AcDbVisualStyle
  2
Conceptual
 70
     9
177
     3
291
     0
 70
    58
 90
        3
176
     1
 90
        2
176
     1
 90
        0
176
     1
 90
        0
176
     1
 40
0.6
176
     1
 40
30.0
176
     1
 62
     7
420
 16777215
176
     1
 90
        2
176
     1
 90
        2
176
     1
 62
     7
176
     1
 62
   257
176
     1
 90
        1
176
     1
 90
        1
176
     1
 40
179.0
176
     1
 90
        8
176
     1
 62
     7
176
     1
 40
1.0
176
     1
 90
        1
176
     1
 90
        6
176
     1
 90
        2
176
     1
 62
     7
176
     1
 90
        3
176
     1
 90
        0
176
     1
 90
        0
176
     1
290
     0
176
     1
 90
        1
176
     1
 40
0.0
176
     1
 90
        0
176
     1
290
     0
176
     1
290
     1
176
     1
290
     1
176
     1
290
     0
176
     1
290
     0
176
     1
290
     0
176
     1
290
     0
176
     1
290
     0
176
     1
290
     0
176
     1
 90
       50
176
     1
 40
0.0
176
     1
 40
1.0
176
     1
 90
        0
176
     1
 62
    18
420
        0
176
     1
 90
       50
176
     1
 90
        3
176
     1
 62
     5
420
      255
176
     1
290
     0
176
     1
 90
       50
176
     1
 90
       50
176
     1
 90
       50
176
     1
290
     0
176
     1
 90
       50
176
     1
 62
   256
176
     0
 40
1.0
176
     0
 90
        2
176
     1
  1
strokes_ogs.tif
176
     1
290
     0
176
     1
 40
1.0
176
     1
 40
1.0
176
     1
  0
VISUALSTYLE
  5
34
102
{ACAD_REACTORS
330
29
102
}
330
29
100
AcDbVisualStyle
  2
Dim
 70
    11
177
     3
291
     1
 70
    58
 90
        2
176
     1
 90
        2
176
     1
 90
        0
176
     1
 90
        0
176
     1
 40
0.6
176
     1
 40
30.0
176
     1
 62
     7
420
 16777215
176
     1
 90
        1
176
     1
 90
        4
176
     1
 62
     7
176
     1
 62
   257
176
     1
 90
        1
176
     1
 90
        1
176
     1
 40
1.0
176
     1
 90
        8
176
     1
 62
     7
176
     1
 40
1.0
176
     1
 90
        1
176
     1
 90
        6
176
     1
 90
        2
176
     1
 62
     7
176
     1
 90
        5
176
     1
 90
        0
176
     1
 90
        0
176
     1
290
     0
176
     1
 90
        1
176
     1
 40
-50.0
176
     1
 90
        0
176
     1
290
     0
176
     1
290
     1
176
     1
290
     1
176
     1
290
     0
176
     1
290
     0
176
     1
290
     0
176
     1
290
     0
176
     1
290
     0
176
     1
290
     0
176
     1
 90
       50
176
     1
 40
0.0
176
     1
 40
1.0
176
     1
 90
        0
176
     1
 62
    18
420
        0
176
     1
 90
       50
176
     1
 90
        3
176
     1
 62
     5
420
      255
176
     1
290
     0
176
     1
 90
       50
176
     1
 90
       50
176
     1
 90
       50
176
     1
290
     0
176
     1
 90
       50
176
     1
 62
   256
176
     0
 40
1.0
176
     0
 90
        2
176
     1
  1
strokes_ogs.tif
176
     1
290
     0
176
     1
 40
1.0
176
     1
 40
1.0
176
     1
  0
VISUALSTYLE
  5
41
102
{ACAD_REACTORS
330
29
102
}
330
29
100
AcDbVisualStyle
  2
EdgeColorOff
 70
    22
177
     3
291
     1
 70
    58
 90
        2
176
     0
 90
        2
176
     0
 90
        0
176
     0
 90
        0
176
     0
 40
0.6
176
     0
 40
30.0
176
     0
 62
     7
420
 16777215
176
     0
 90
        1
176
     0
 90
        4
176
     0
 62
     7
176
     0
 62
   257
176
     0
 90
        1
176
     0
 90
        1
176
     0
 40
1.0
176
     0
 90
        8
176
     2
 62
     7
176
     0
 40
1.0
176
     0
 90
        1
176
     0
 90
        6
176
     0
 90
        2
176
     0
 62
     7
176
     0
 90
        5
176
     0
 90
        0
176
     0
 90
        0
176
     0
290
     0
176
     0
 90
        1
176
     0
 40
0.0
176
     0
 90
        0
176
     0
290
     0
176
     0
290
     1
176
     0
290
     1
176
     0
290
     0
176
     0
290
     0
176
     0
290
     0
176
     0
290
     0
176
     0
290
     0
176
     0
290
     0
176
     0
 90
       50
176
     0
 40
0.0
176
     0
 40
1.0
176
     0
 90
        0
176
     0
 62
    18
420
        0
176
     0
 90
       50
176
     0
 90
        3
176
     0
 62
     5
420
      255
176
     0
290
     0
176
     0
 90
       50
176
     0
 90
       50
176
     0
 90
       50
176
     0
290
     0
176
     0
 90
       50
176
     0
 62
   256
176
     0
 40
1.0
176
     0
 90
        2
176
     0
  1
strokes_ogs.tif
176
     0
290
     0
176
     0
 40
1.0
176
     0
 40
1.0
176
     0
  0
VISUALSTYLE
  5
38
102
{ACAD_REACTORS
330
29
102
}
330
29
100
AcDbVisualStyle
  2
Facepattern
 70
    15
177
     3
291
     1
 70
    58
 90
        2
176
     1
 90
        2
176
     1
 90
        0
176
     1
 90
        0
176
     1
 40
0.6
176
     1
 40
30.0
176
     1
 62
     7
420
 16777215
176
     1
 90
        1
176
     1
 90
        4
176
     1
 62
     7
176
     1
 62
   257
176
     1
 90
        1
176
     1
 90
        1
176
     1
 40
1.0
176
     1
 90
        8
176
     1
 62
     7
176
     1
 40
1.0
176
     1
 90
        1
176
     1
 90
        6
176
     1
 90
        2
176
     1
 62
     7
176
     1
 90
        5
176
     1
 90
        0
176
     1
 90
        0
176
     1
290
     0
176
     1
 90
        1
176
     1
 40
0.0
176
     1
 90
        0
176
     1
290
     0
176
     1
290
     1
176
     1
290
     1
176
     1
290
     0
176
     1
290
     0
176
     1
290
     0
176
     1
290
     0
176
     1
290
     0
176
     1
290
     0
176
     1
 90
       50
176
     1
 40
0.0
176
     1
 40
1.0
176
     1
 90
        0
176
     1
 62
    18
420
        0
176
     1
 90
       50
176
     1
 90
        3
176
     1
 62
     5
420
      255
176
     1
290
     0
176
     1
 90
       50
176
     1
 90
       50
176
     1
 90
       50
176
     1
290
     0
176
     1
 90
       50
176
     1
 62
   256
176
     0
 40
1.0
176
     0
 90
        2
176
     1
  1
strokes_ogs.tif
176
     1
290
     0
176
     1
 40
1.0
176
     1
 40
1.0
176
     1
  0
VISUALSTYLE
  5
2A
102
{ACAD_REACTORS
330
29
102
}
330
29
100
AcDbVisualStyle
  2
Flat
 70
     0
177
     3
291
     1
 70
    58
 90
        2
176
     1
 90
        1
176
     1
 90
        1
176
     1
 90
        2
176
     1
 40
0.6
176
     1
 40
30.0
176
     1
 62
     7
420
 16777215
176
     1
 90
        0
176
     1
 90
        0
176
     1
 62
     7
176
     1
 62
   257
176
     1
 90
        1
176
     1
 90
        1
176
     1
 40
1.0
176
     1
 90
        8
176
     1
 62
     7
176
     1
 40
1.0
176
     1
 90
        1
176
     1
 90
        6
176
     1
 90
        2
176
     1
 62
     7
176
     1
 90
        5
176
     1
 90
        0
176
     1
 90
        0
176
     1
290
     0
176
     1
 90
       13
176
     1
 40
0.0
176
     1
 90
        0
176
     1
290
     0
176
     1
290
     1
176
     1
290
     1
176
     1
290
     0
176
     1
290
     0
176
     1
290
     0
176
     1
290
     0
176
     1
290
     0
176
     1
290
     0
176
     1
 90
       50
176
     1
 40
0.0
176
     1
 40
1.0
176
     1
 90
        0
176
     1
 62
    18
420
        0
176
     1
 90
       50
176
     1
 90
        3
176
     1
 62
     5
420
      255
176
     1
290
     0
176
     1
 90
       50
176
     1
 90
       50
176
     1
 90
       50
176
     1
290
     0
176
     1
 90
       50
176
     1
 62
   256
176
     0
 40
1.0
176
     0
 90
        2
176
     1
  1
strokes_ogs.tif
176
     1
290
     0
176
     1
 40
1.0
176
     1
 40
1.0
176
     1
  0
VISUALSTYLE
  5
2B
102
{ACAD_REACTORS
330
29
102
}
330
29
100
AcDbVisualStyle
  2
FlatWithEdges
 70
     1
177
     3
291
     1
 70
    58
 90
        2
176
     1
 90
        1
176
     1
 90
        1
176
     1
 90
        2
176
     1
 40
0.6
176
     1
 40
30.0
176
     1
 62
     7
420
 16777215
176
     1
 90
        1
176
     1
 90
        0
176
     1
 62
     7
176
     1
 62
   257
176
     1
 90
        1
176
     1
 90
        1
176
     1
 40
1.0
176
     1
 90
        0
176
     1
 62
   257
176
     1
 40
1.0
176
     1
 90
        1
176
     1
 90
        6
176
     1
 90
        2
176
     1
 62
     7
176
     1
 90
        5
176
     1
 90
        0
176
     1
 90
        0
176
     1
290
     0
176
     1
 90
       13
176
     1
 40
0.0
176
     1
 90
        0
176
     1
290
     0
176
     1
290
     1
176
     1
290
     1
176
     1
290
     0
176
     1
290
     0
176
     1
290
     0
176
     1
290
     0
176
     1
290
     0
176
     1
290
     0
176
     1
 90
       50
176
     1
 40
0.0
176
     1
 40
1.0
176
     1
 90
        0
176
     1
 62
    18
420
        0
176
     1
 90
       50
176
     1
 90
        3
176
     1
 62
     5
420
      255
176
     1
290
     0
176
     1
 90
       50
176
     1
 90
       50
176
     1
 90
       50
176
     1
290
     0
176
     1
 90
       50
176
     1
 62
   256
176
     0
 40
1.0
176
     0
 90
        2
176
     1
  1
strokes_ogs.tif
176
     1
290
     0
176
     1
 40
1.0
176
     1
 40
1.0
176
     1
  0
VISUALSTYLE
  5
2C
102
{ACAD_REACTORS
330
29
102
}
330
29
100
AcDbVisualStyle
  2
Gouraud
 70
     2
177
     3
291
     1
 70
    58
 90
        2
176
     1
 90
        2
176
     1
 90
        1
176
     1
 90
        2
176
     1
 40
0.6
176
     1
 40
30.0
176
     1
 62
     7
420
 16777215
176
     1
 90
        0
176
     1
 90
        0
176
     1
 62
     7
176
     1
 62
   257
176
     1
 90
        1
176
     1
 90
        1
176
     1
 40
1.0
176
     1
 90
        0
176
     1
 62
     7
176
     1
 40
1.0
176
     1
 90
        1
176
     1
 90
        6
176
     1
 90
        2
176
     1
 62
     7
176
     1
 90
        5
176
     1
 90
        0
176
     1
 90
        0
176
     1
290
     0
176
     1
 90
       13
176
     1
 40
0.0
176
     1
 90
        0
176
     1
290
     0
176
     1
290
     1
176
     1
290
     1
176
     1
290
     0
176
     1
290
     0
176
     1
290
     0
176
     1
290
     0
176
     1
290
     0
176
     1
290
     0
176
     1
 90
       50
176
     1
 40
0.0
176
     1
 40
1.0
176
     1
 90
        0
176
     1
 62
    18
420
        0
176
     1
 90
       50
176
     1
 90
        3
176
     1
 62
     5
420
      255
176
     1
290
     0
176
     1
 90
       50
176
     1
 90
       50
176
     1
 90
       50
176
     1
290
     0
176
     1
 90
       50
176
     1
 62
   256
176
     0
 40
1.0
176
     0
 90
        2
176
     1
  1
strokes_ogs.tif
176
     1
290
     0
176
     1
 40
1.0
176
     1
 40
1.0
176
     1
  0
VISUALSTYLE
  5
2D
102
{ACAD_REACTORS
330
29
102
}
330
29
100
AcDbVisualStyle
  2
GouraudWithEdges
 70
     3
177
     3
291
     1
 70
    58
 90
        2
176
     1
 90
        2
176
     1
 90
        1
176
     1
 90
        2
176
     1
 40
0.6
176
     1
 40
30.0
176
     1
 62
     7
420
 16777215
176
     1
 90
        1
176
     1
 90
        0
176
     1
 62
     7
176
     1
 62
   257
176
     1
 90
        1
176
     1
 90
        1
176
     1
 40
1.0
176
     1
 90
        0
176
     1
 62
   257
176
     1
 40
1.0
176
     1
 90
        1
176
     1
 90
        6
176
     1
 90
        2
176
     1
 62
     7
176
     1
 90
        5
176
     1
 90
        0
176
     1
 90
        0
176
     1
290
     0
176
     1
 90
       13
176
     1
 40
0.0
176
     1
 90
        0
176
     1
290
     0
176
     1
290
     1
176
     1
290
     1
176
     1
290
     0
176
     1
290
     0
176
     1
290
     0
176
     1
290
     0
176
     1
290
     0
176
     1
290
     0
176
     1
 90
       50
176
     1
 40
0.0
176
     1
 40
1.0
176
     1
 90
        0
176
     1
 62
    18
420
        0
176
     1
 90
       50
176
     1
 90
        3
176
     1
 62
     5
420
      255
176
     1
290
     0
176
     1
 90
       50
176
     1
 90
       50
176
     1
 90
       50
176
     1
290
     0
176
     1
 90
       50
176
     1
 62
   256
176
     0
 40
1.0
176
     0
 90
        2
176
     1
  1
strokes_ogs.tif
176
     1
290
     0
176
     1
 40
1.0
176
     1
 40
1.0
176
     1
  0
VISUALSTYLE
  5
31
102
{ACAD_REACTORS
330
29
102
}
330
29
100
AcDbVisualStyle
  2
Hidden
 70
     6
177
     3
291
     0
 70
    58
 90
        1
176
     1
 90
        2
176
     1
 90
        2
176
     1
 90
        0
176
     1
 40
0.6
176
     1
 40
30.0
176
     1
 62
     7
420
 16777215
176
     1
 90
        2
176
     1
 90
        2
176
     1
 62
     7
176
     1
 62
   257
176
     1
 90
        2
176
     1
 90
        1
176
     1
 40
40.0
176
     1
 90
        0
176
     1
 62
   257
176
     1
 40
1.0
176
     1
 90
        1
176
     1
 90
        6
176
     1
 90
        2
176
     1
 62
     7
176
     1
 90
        3
176
     1
 90
        0
176
     1
 90
        0
176
     1
290
     0
176
     1
 90
        1
176
     1
 40
0.0
176
     1
 90
        0
176
     1
290
     0
176
     1
290
     1
176
     1
290
     1
176
     1
290
     0
176
     1
290
     0
176
     1
290
     0
176
     1
290
     0
176
     1
290
     0
176
     1
290
     0
176
     1
 90
       50
176
     1
 40
0.0
176
     1
 40
1.0
176
     1
 90
        0
176
     1
 62
    18
420
        0
176
     1
 90
       50
176
     1
 90
        3
176
     1
 62
     5
420
      255
176
     1
290
     0
176
     1
 90
       50
176
     1
 90
       50
176
     1
 90
       50
176
     1
290
     0
176
     1
 90
       50
176
     1
 62
   256
176
     0
 40
1.0
176
     0
 90
        2
176
     1
  1
strokes_ogs.tif
176
     1
290
     0
176
     1
 40
1.0
176
     1
 40
1.0
176
     1
  0
VISUALSTYLE
  5
3F
102
{ACAD_REACTORS
330
29
102
}
330
29
100
AcDbVisualStyle
  2
JitterOff
 70
    20
177
     3
291
     1
 70
    58
 90
        2
176
     0
 90
        2
176
     0
 90
        0
176
     0
 90
        0
176
     0
 40
0.6
176
     0
 40
30.0
176
     0
 62
     7
420
 16777215
176
     0
 90
        1
176
     0
 90
        4
176
     0
 62
     7
176
     0
 62
   257
176
     0
 90
        1
176
     0
 90
        1
176
     0
 40
1.0
176
     0
 90
       10
176
     2
 62
     7
176
     0
 40
1.0
176
     0
 90
        1
176
     0
 90
        6
176
     0
 90
        2
176
     0
 62
     7
176
     0
 90
        5
176
     0
 90
        0
176
     0
 90
        0
176
     0
290
     0
176
     0
 90
        1
176
     0
 40
0.0
176
     0
 90
        0
176
     0
290
     0
176
     0
290
     1
176
     0
290
     1
176
     0
290
     0
176
     0
290
     0
176
     0
290
     0
176
     0
290
     0
176
     0
290
     0
176
     0
290
     0
176
     0
 90
       50
176
     0
 40
0.0
176
     0
 40
1.0
176
     0
 90
        0
176
     0
 62
    18
420
        0
176
     0
 90
       50
176
     0
 90
        3
176
     0
 62
     5
420
      255
176
     0
290
     0
176
     0
 90
       50
176
     0
 90
       50
176
     0
 90
       50
176
     0
290
     0
176
     0
 90
       50
176
     0
 62
   256
176
     0
 40
1.0
176
     0
 90
        2
176
     0
  1
strokes_ogs.tif
176
     0
290
     0
176
     0
 40
1.0
176
     0
 40
1.0
176
     0
  0
VISUALSTYLE
  5
37
102
{ACAD_REACTORS
330
29
102
}
330
29
100
AcDbVisualStyle
  2
Linepattern
 70
    14
177
     3
291
     1
 70
    58
 90
        2
176
     1
 90
        2
176
     1
 90
        0
176
     1
 90
        0
176
     1
 40
0.6
176
     1
 40
30.0
176
     1
 62
     7
420
 16777215
176
     1
 90
        1
176
     1
 90
        4
176
     1
 62
     7
176
     1
 62
   257
176
     1
 90
        7
176
     1
 90
        7
176
     1
 40
1.0
176
     1
 90
        8
176
     1
 62
     7
176
     1
 40
1.0
176
     1
 90
        1
176
     1
 90
        6
176
     1
 90
        2
176
     1
 62
     7
176
     1
 90
        5
176
     1
 90
        0
176
     1
 90
        0
176
     1
290
     0
176
     1
 90
        1
176
     1
 40
0.0
176
     1
 90
        0
176
     1
290
     0
176
     1
290
     1
176
     1
290
     1
176
     1
290
     0
176
     1
290
     0
176
     1
290
     0
176
     1
290
     0
176
     1
290
     0
176
     1
290
     0
176
     1
 90
       50
176
     1
 40
0.0
176
     1
 40
1.0
176
     1
 90
        0
176
     1
 62
    18
420
        0
176
     1
 90
       50
176
     1
 90
        3
176
     1
 62
     5
420
      255
176
     1
290
     0
176
     1
 90
       50
176
     1
 90
       50
176
     1
 90
       50
176
     1
290
     0
176
     1
 90
       50
176
     1
 62
   256
176
     0
 40
1.0
176
     0
 90
        2
176
     1
  1
strokes_ogs.tif
176
     1
290
     0
176
     1
 40
1.0
176
     1
 40
1.0
176
     1
  0
VISUALSTYLE
  5
40
102
{ACAD_REACTORS
330
29
102
}
330
29
100
AcDbVisualStyle
  2
OverhangOff
 70
    21
177
     3
291
     1
 70
    58
 90
        2
176
     0
 90
        2
176
     0
 90
        0
176
     0
 90
        0
176
     0
 40
0.6
176
     0
 40
30.0
176
     0
 62
     7
420
 16777215
176
     0
 90
        1
176
     0
 90
        4
176
     0
 62
     7
176
     0
 62
   257
176
     0
 90
        1
176
     0
 90
        1
176
     0
 40
1.0
176
     0
 90
        9
176
     2
 62
     7
176
     0
 40
1.0
176
     0
 90
        1
176
     0
 90
        6
176
     0
 90
        2
176
     0
 62
     7
176
     0
 90
        5
176
     0
 90
        0
176
     0
 90
        0
176
     0
290
     0
176
     0
 90
        1
176
     0
 40
0.0
176
     0
 90
        0
176
     0
290
     0
176
     0
290
     1
176
     0
290
     1
176
     0
290
     0
176
     0
290
     0
176
     0
290
     0
176
     0
290
     0
176
     0
290
     0
176
     0
290
     0
176
     0
 90
       50
176
     0
 40
0.0
176
     0
 40
1.0
176
     0
 90
        0
176
     0
 62
    18
420
        0
176
     0
 90
       50
176
     0
 90
        3
176
     0
 62
     5
420
      255
176
     0
290
     0
176
     0
 90
       50
176
     0
 90
       50
176
     0
 90
       50
176
     0
290
     0
176
     0
 90
       50
176
     0
 62
   256
176
     0
 40
1.0
176
     0
 90
        2
176
     0
  1
strokes_ogs.tif
176
     0
290
     0
176
     0
 40
1.0
176
     0
 40
1.0
176
     0
  0
VISUALSTYLE
  5
33
102
{ACAD_REACTORS
330
29
102
}
330
29
100
AcDbVisualStyle
  2
Realistic
 70
     8
177
     3
291
     0
 70
    58
 90
        2
176
     1
 90
        3
176
     1
 90
        0
176
     1
 90
        2
176
     1
 40
0.6
176
     1
 40
30.0
176
     1
 62
     7
420
 16777215
176
     1
 90
        0
176
     1
 90
        0
176
     1
 62
     7
176
     1
 62
   257
176
     1
 90
        1
176
     1
 90
        1
176
     1
 40
1.0
176
     1
 90
        8
176
     1
 62
   257
176
     1
 40
1.0
176
     1
 90
        1
176
     1
 90
        6
176
     1
 90
        2
176
     1
 62
     7
176
     1
 90
        3
176
     1
 90
        0
176
     1
 90
        0
176
     1
290
     0
176
     1
 90
       13
176
     1
 40
0.0
176
     1
 90
        0
176
     1
290
     0
176
     1
290
     1
176
     1
290
     1
176
     1
290
     0
176
     1
290
     0
176
     1
290
     0
176
     1
290
     0
176
     1
290
     0
176
     1
290
     0
176
     1
 90
       50
176
     1
 40
0.0
176
     1
 40
1.0
176
     1
 90
        0
176
     1
 62
    18
420
        0
176
     1
 90
       50
176
     1
 90
        3
176
     1
 62
     5
420
      255
176
     1
290
     0
176
     1
 90
       50
176
     1
 90
       50
176
     1
 90
       50
176
     1
290
     0
176
     1
 90
       50
176
     1
 62
   256
176
     0
 40
1.0
176
     0
 90
        2
176
     1
  1
strokes_ogs.tif
176
     1
290
     0
176
     1
 40
1.0
176
     1
 40
1.0
176
     1
  0
VISUALSTYLE
  5
3E
102
{ACAD_REACTORS
330
29
102
}
330
29
100
AcDbVisualStyle
  2
Shaded
 70
    27
177
     3
291
     0
 70
    58
 90
        2
176
     1
 90
        2
176
     1
 90
        1
176
     1
 90
        2
176
     1
 40
0.6
176
     1
 40
30.0
176
     1
 62
     7
420
 16777215
176
     1
 90
        0
176
     1
 90
        4
176
     1
 62
     7
176
     1
 62
   257
176
     1
 90
        1
176
     1
 90
        1
176
     1
 40
1.0
176
     1
 90
        8
176
     1
 62
   257
176
     1
 40
1.0
176
     1
 90
        1
176
     1
 90
        6
176
     1
 90
        2
176
     1
 62
     8
420
  7895160
176
     1
 90
        3
176
     1
 90
        0
176
     1
 90
        0
176
     1
290
     0
176
     1
 90
        5
176
     1
 40
0.0
176
     1
 90
        0
176
     1
290
     0
176
     1
290
     1
176
     1
290
     1
176
     1
290
     0
176
     1
290
     0
176
     1
290
     0
176
     1
290
     0
176
     1
290
     0
176
     1
290
     0
176
     1
 90
       50
176
     1
 40
0.0
176
     1
 40
1.0
176
     1
 90
        0
176
     1
 62
    18
420
        0
176
     1
 90
       50
176
     1
 90
        3
176
     1
 62
     5
420
      255
176
     1
290
     0
176
     1
 90
       50
176
     1
 90
       50
176
     1
 90
       50
176
     1
290
     0
176
     1
 90
       50
176
     1
 62
   256
176
     0
 40
1.0
176
     0
 90
        2
176
     1
  1
strokes_ogs.tif
176
     1
290
     0
176
     1
 40
1.0
176
     1
 40
1.0
176
     1
  0
VISUALSTYLE
  5
3D
102
{ACAD_REACTORS
330
29
102
}
330
29
100
AcDbVisualStyle
  2
Shaded with edges
 70
    26
177
     3
291
     0
 70
    58
 90
        2
176
     1
 90
        2
176
     1
 90
        1
176
     1
 90
        2
176
     1
 40
0.6
176
     1
 40
30.0
176
     1
 62
     7
420
 16777215
176
     1
 90
        1
176
     1
 90
        2
176
     1
 62
     7
176
     1
 62
   257
176
     1
 90
        2
176
     1
 90
        1
176
     1
 40
1.0
176
     1
 90
        8
176
     1
 62
   257
176
     1
 40
1.0
176
     1
 90
        1
176
     1
 90
        6
176
     1
 90
        2
176
     1
 62
     7
176
     1
 90
        3
176
     1
 90
        0
176
     1
 90
        0
176
     1
290
     0
176
     1
 90
        5
176
     1
 40
0.0
176
     1
 90
        0
176
     1
290
     0
176
     1
290
     1
176
     1
290
     1
176
     1
290
     0
176
     1
290
     0
176
     1
290
     0
176
     1
290
     0
176
     1
290
     0
176
     1
290
     0
176
     1
 90
       50
176
     1
 40
0.0
176
     1
 40
1.0
176
     1
 90
        0
176
     1
 62
    18
420
        0
176
     1
 90
       50
176
     1
 90
        3
176
     1
 62
     5
420
      255
176
     1
290
     0
176
     1
 90
       50
176
     1
 90
       50
176
     1
 90
       50
176
     1
290
     0
176
     1
 90
       50
176
     1
 62
   256
176
     0
 40
1.0
176
     0
 90
        2
176
     1
  1
strokes_ogs.tif
176
     1
290
     0
176
     1
 40
1.0
176
     1
 40
1.0
176
     1
  0
VISUALSTYLE
  5
3A
102
{ACAD_REACTORS
330
29
102
}
330
29
100
AcDbVisualStyle
  2
Shades of Gray
 70
    23
177
     3
291
     0
 70
    58
 90
        2
176
     1
 90
        2
176
     1
 90
        3
176
     1
 90
        0
176
     1
 40
0.6
176
     1
 40
30.0
176
     1
 62
     7
420
 16777215
176
     1
 90
        2
176
     1
 90
        2
176
     1
 62
     7
176
     1
 62
     7
176
     1
 90
        1
176
     1
 90
        1
176
     1
 40
40.0
176
     1
 90
        8
176
     1
 62
     7
176
     1
 40
1.0
176
     1
 90
        1
176
     1
 90
        6
176
     1
 90
        2
176
     1
 62
     7
176
     1
 90
        3
176
     1
 90
        0
176
     1
 90
        0
176
     1
290
     0
176
     1
 90
        1
176
     1
 40
0.0
176
     1
 90
        0
176
     1
290
     0
176
     1
290
     1
176
     1
290
     1
176
     1
290
     0
176
     1
290
     0
176
     1
290
     0
176
     1
290
     0
176
     1
290
     0
176
     1
290
     0
176
     1
 90
       50
176
     1
 40
0.0
176
     1
 40
1.0
176
     1
 90
        0
176
     1
 62
    18
420
        0
176
     1
 90
       50
176
     1
 90
        3
176
     1
 62
     5
420
      255
176
     1
290
     0
176
     1
 90
       50
176
     1
 90
       50
176
     1
 90
       50
176
     1
290
     0
176
     1
 90
       50
176
     1
 62
   256
176
     0
 40
1.0
176
     0
 90
        2
176
     1
  1
strokes_ogs.tif
176
     1
290
     0
176
     1
 40
1.0
176
     1
 40
1.0
176
     1
  0
VISUALSTYLE
  5
3B
102
{ACAD_REACTORS
330
29
102
}
330
29
100
AcDbVisualStyle
  2
Sketchy
 70
    24
177
     3
291
     0
 70
    58
 90
        1
176
     1
 90
        2
176
     1
 90
        2
176
     1
 90
        0
176
     1
 40
0.6
176
     1
 40
30.0
176
     1
 62
     7
420
 16777215
176
     1
 90
        2
176
     1
 90
        2
176
     1
 62
     7
176
     1
 62
     7
176
     1
 90
        1
176
     1
 90
        1
176
     1
 40
40.0
176
     1
 90
       11
176
     1
 62
     7
176
     1
 40
1.0
176
     1
 90
        1
176
     1
 90
        6
176
     1
 90
        2
176
     1
 62
     7
176
     1
 90
        6
176
     1
 90
        0
176
     1
 90
        0
176
     1
290
     0
176
     1
 90
        1
176
     1
 40
0.0
176
     1
 90
        0
176
     1
290
     0
176
     1
290
     1
176
     1
290
     1
176
     1
290
     0
176
     1
290
     0
176
     1
290
     0
176
     1
290
     0
176
     1
290
     0
176
     1
290
     0
176
     1
 90
       50
176
     1
 40
0.0
176
     1
 40
1.0
176
     1
 90
        0
176
     1
 62
    18
420
        0
176
     1
 90
       50
176
     1
 90
        3
176
     1
 62
     5
420
      255
176
     1
290
     0
176
     1
 90
       50
176
     1
 90
       50
176
     1
 90
       50
176
     1
290
     0
176
     1
 90
       50
176
     1
 62
   256
176
     0
 40
1.0
176
     0
 90
        2
176
     1
  1
strokes_ogs.tif
176
     1
290
     0
176
     1
 40
1.0
176
     1
 40
1.0
176
     1
  0
VISUALSTYLE
  5
36
102
{ACAD_REACTORS
330
29
102
}
330
29
100
AcDbVisualStyle
  2
Thicken
 70
    13
177
     3
291
     1
 70
    58
 90
        2
176
     1
 90
        2
176
     1
 90
        0
176
     1
 90
        0
176
     1
 40
0.6
176
     1
 40
30.0
176
     1
 62
     7
420
 16777215
176
     1
 90
        1
176
     1
 90
        4
176
     1
 62
     7
176
     1
 62
   257
176
     1
 90
        1
176
     1
 90
        1
176
     1
 40
1.0
176
     1
 90
       12
176
     1
 62
     7
176
     1
 40
1.0
176
     1
 90
        1
176
     1
 90
        6
176
     1
 90
        2
176
     1
 62
     7
176
     1
 90
        5
176
     1
 90
        0
176
     1
 90
        0
176
     1
290
     0
176
     1
 90
        1
176
     1
 40
0.0
176
     1
 90
        0
176
     1
290
     0
176
     1
290
     1
176
     1
290
     1
176
     1
290
     0
176
     1
290
     0
176
     1
290
     0
176
     1
290
     0
176
     1
290
     0
176
     1
290
     0
176
     1
 90
       50
176
     1
 40
0.0
176
     1
 40
1.0
176
     1
 90
        0
176
     1
 62
    18
420
        0
176
     1
 90
       50
176
     1
 90
        3
176
     1
 62
     5
420
      255
176
     1
290
     0
176
     1
 90
       50
176
     1
 90
       50
176
     1
 90
       50
176
     1
290
     0
176
     1
 90
       50
176
     1
 62
   256
176
     0
 40
1.0
176
     0
 90
        2
176
     1
  1
strokes_ogs.tif
176
     1
290
     0
176
     1
 40
1.0
176
     1
 40
1.0
176
     1
  0
VISUALSTYLE
  5
30
102
{ACAD_REACTORS
330
29
102
}
330
29
100
AcDbVisualStyle
  2
Wireframe
 70
     5
177
     3
291
     0
 70
    58
 90
        0
176
     1
 90
        2
176
     1
 90
        0
176
     1
 90
        0
176
     1
 40
0.6
176
     1
 40
30.0
176
     1
 62
     7
420
 16777215
176
     1
 90
        1
176
     1
 90
        4
176
     1
 62
     7
176
     1
 62
   257
176
     1
 90
        1
176
     1
 90
        1
176
     1
 40
1.0
176
     1
 90
        0
176
     1
 62
   257
176
     1
 40
1.0
176
     1
 90
        1
176
     1
 90
        6
176
     1
 90
        2
176
     1
 62
     7
176
     1
 90
        3
176
     1
 90
        0
176
     1
 90
        0
176
     1
290
     0
176
     1
 90
        1
176
     1
 40
0.0
176
     1
 90
        0
176
     1
290
     0
176
     1
290
     1
176
     1
290
     1
176
     1
290
     0
176
     1
290
     0
176
     1
290
     0
176
     1
290
     0
176
     1
290
     0
176
     1
290
     0
176
     1
 90
       50
176
     1
 40
0.0
176
     1
 40
1.0
176
     1
 90
        0
176
     1
 62
    18
420
        0
176
     1
 90
       50
176
     1
 90
        3
176
     1
 62
     5
420
      255
176
     1
290
     0
176
     1
 90
       50
176
     1
 90
       50
176
     1
 90
       50
176
     1
290
     0
176
     1
 90
       50
176
     1
 62
   256
176
     0
 40
1.0
176
     0
 90
        2
176
     1
  1
strokes_ogs.tif
176
     1
290
     0
176
     1
 40
1.0
176
     1
 40
1.0
176
     1
  0
VISUALSTYLE
  5
3C
102
{ACAD_REACTORS
330
29
102
}
330
29
100
AcDbVisualStyle
  2
X-Ray
 70
    25
177
     3
291
     0
 70
    58
 90
        2
176
     1
 90
        2
176
     1
 90
        1
176
     1
 90
        1
176
     1
 40
0.5
176
     1
 40
30.0
176
     1
 62
     7
420
 16777215
176
     1
 90
        1
176
     1
 90
        0
176
     1
 62
     7
176
     1
 62
   257
176
     1
 90
        1
176
     1
 90
        1
176
     1
 40
1.0
176
     1
 90
        8
176
     1
 62
     7
176
     1
 40
1.0
176
     1
 90
        1
176
     1
 90
        6
176
     1
 90
        2
176
     1
 62
     7
176
     1
 90
        3
176
     1
 90
        0
176
     1
 90
        0
176
     1
290
     0
176
     1
 90
       13
176
     1
 40
0.0
176
     1
 90
        0
176
     1
290
     0
176
     1
290
     1
176
     1
290
     1
176
     1
290
     0
176
     1
290
     0
176
     1
290
     0
176
     1
290
     0
176
     1
290
     0
176
     1
290
     0
176
     1
 90
       50
176
     1
 40
0.0
176
     1
 40
1.0
176
     1
 90
        0
176
     1
 62
    18
420
        0
176
     1
 90
       50
176
     1
 90
        3
176
     1
 62
     5
420
      255
176
     1
290
     0
176
     1
 90
       50
176
     1
 90
       50
176
     1
 90
       50
176
     1
290
     0
176
     1
 90
       50
176
     1
 62
   256
176
     0
 40
1.0
176
     0
 90
        2
176
     1
  1
strokes_ogs.tif
176
     1
290
     0
176
     1
 40
1.0
176
     1
 40
1.0
176
     1
  0
DICTIONARYVAR
  5
C6
102
{ACAD_REACTORS
330
C1
102
}
330
C1
100
DictionaryVariables
280
     0
  1
1:1
  0
DICTIONARYVAR
  5
C3
102
{ACAD_REACTORS
330
C1
102
}
330
C1
100
DictionaryVariables
280
     0
  1
STANDARD
  0
DICTIONARYVAR
  5
C2
102
{ACAD_REACTORS
330
C1
102
}
330
C1
100
DictionaryVariables
280
     0
  1
STANDARD
  0
DICTIONARYVAR
  5
C4
102
{ACAD_REACTORS
330
C1
102
}
330
C1
100
DictionaryVariables
280
     0
  1
Imperial24
  0
DICTIONARYVAR
  5
C5
102
{ACAD_REACTORS
330
C1
102
}
330
C1
100
DictionaryVariables
280
     0
  1
Imperial24
  0
DICTIONARY
  5
1A
330
19
100
AcDbDictionary
280
     1
281
     1
  3
BUMPTILE
360
1C
  3
DIFFUSETILE
360
1B
  3
OPACITYTILE
360
1F
  3
REFLECTIONTILE
360
1E
  3
REFRACTIONTILE
360
20
  3
SPECULARTILE
360
1D
  0
DICTIONARY
  5
12
330
11
100
AcDbDictionary
280
     1
281
     1
  3
BUMPTILE
360
14
  3
DIFFUSETILE
360
13
  3
OPACITYTILE
360
17
  3
REFLECTIONTILE
360
16
  3
REFRACTIONTILE
360
18
  3
SPECULARTILE
360
15
  0
DICTIONARY
  5
22
330
21
100
AcDbDictionary
280
     1
281
     1
  3
BUMPTILE
360
24
  3
DIFFUSETILE
360
23
  3
OPACITYTILE
360
27
  3
REFLECTIONTILE
360
26
  3
REFRACTIONTILE
360
28
  3
SPECULARTILE
360
25
  0
DICTIONARY
  5
C7
330
65
100
AcDbDictionary
280
     1
281
     1
  3
ACAD_ROUNDTRIP_2008_TABLESTYLE_CELLSTYLEMAP
360
C8
  0
XRECORD
  5
1C
102
{ACAD_REACTORS
330
1A
102
}
330
1A
100
AcDbXrecord
280
     1
270
     1
271
     1
  0
XRECORD
  5
1B
102
{ACAD_REACTORS
330
1A
102
}
330
1A
100
AcDbXrecord
280
     1
270
     1
271
     1
  0
XRECORD
  5
1F
102
{ACAD_REACTORS
330
1A
102
}
330
1A
100
AcDbXrecord
280
     1
270
     1
271
     1
  0
XRECORD
  5
1E
102
{ACAD_REACTORS
330
1A
102
}
330
1A
100
AcDbXrecord
280
     1
270
     1
271
     1
  0
XRECORD
  5
20
102
{ACAD_REACTORS
330
1A
102
}
330
1A
100
AcDbXrecord
280
     1
270
     1
271
     1
  0
XRECORD
  5
1D
102
{ACAD_REACTORS
330
1A
102
}
330
1A
100
AcDbXrecord
280
     1
270
     1
271
     1
  0
XRECORD
  5
14
102
{ACAD_REACTORS
330
12
102
}
330
12
100
AcDbXrecord
280
     1
270
     1
271
     1
  0
XRECORD
  5
13
102
{ACAD_REACTORS
330
12
102
}
330
12
100
AcDbXrecord
280
     1
270
     1
271
     1
  0
XRECORD
  5
17
102
{ACAD_REACTORS
330
12
102
}
330
12
100
AcDbXrecord
280
     1
270
     1
271
     1
  0
XRECORD
  5
16
102
{ACAD_REACTORS
330
12
102
}
330
12
100
AcDbXrecord
280
     1
270
     1
271
     1
  0
XRECORD
  5
18
102
{ACAD_REACTORS
330
12
102
}
330
12
100
AcDbXrecord
280
     1
270
     1
271
     1
  0
XRECORD
  5
15
102
{ACAD_REACTORS
330
12
102
}
330
12
100
AcDbXrecord
280
     1
270
     1
271
     1
  0
XRECORD
  5
24
102
{ACAD_REACTORS
330
22
102
}
330
22
100
AcDbXrecord
280
     1
270
     1
271
     1
  0
XRECORD
  5
23
102
{ACAD_REACTORS
330
22
102
}
330
22
100
AcDbXrecord
280
     1
270
     1
271
     1
  0
XRECORD
  5
27
102
{ACAD_REACTORS
330
22
102
}
330
22
100
AcDbXrecord
280
     1
270
     1
271
     1
  0
XRECORD
  5
26
102
{ACAD_REACTORS
330
22
102
}
330
22
100
AcDbXrecord
280
     1
270
     1
271
     1
  0
XRECORD
  5
28
102
{ACAD_REACTORS
330
22
102
}
330
22
100
AcDbXrecord
280
     1
270
     1
271
     1
  0
XRECORD
  5
25
102
{ACAD_REACTORS
330
22
102
}
330
22
100
AcDbXrecord
280
     1
270
     1
271
     1
  0
CELLSTYLEMAP
  5
C8
102
{ACAD_REACTORS
330
C7
102
}
330
C7
100
AcDbCellStyleMap
 90
        3
300
CELLSTYLE
  1
TABLEFORMAT_BEGIN
 90
        5
170
     1
 91
        0
 92
    32768
 62
   257
 93
        1
300
CONTENTFORMAT
  1
CONTENTFORMAT_BEGIN
 90
        0
 91
        0
 92
      512
 93
        0
300

 40
0.0
140
1.0
 94
        5
 62
     0
340
55
144
0.25
309
CONTENTFORMAT_END
171
     0
 94
        0
309
TABLEFORMAT_END
  1
CELLSTYLE_BEGIN
 90
        1
 91
        1
300
_TITLE
309
CELLSTYLE_END
300
CELLSTYLE
  1
TABLEFORMAT_BEGIN
 90
        5
170
     1
 91
        0
 92
        0
 62
   257
 93
        1
300
CONTENTFORMAT
  1
CONTENTFORMAT_BEGIN
 90
        0
 91
        0
 92
      512
 93
        0
300

 40
0.0
140
1.0
 94
        5
 62
     0
340
55
144
0.18
309
CONTENTFORMAT_END
171
     0
 94
        0
309
TABLEFORMAT_END
  1
CELLSTYLE_BEGIN
 90
        2
 91
        1
300
_HEADER
309
CELLSTYLE_END
300
CELLSTYLE
  1
TABLEFORMAT_BEGIN
 90
        5
170
     1
 91
        0
 92
        0
 62
   257
 93
        1
300
CONTENTFORMAT
  1
CONTENTFORMAT_BEGIN
 90
        0
 91
        0
 92
      512
 93
        0
300

 40
0.0
140
1.0
 94
        2
 62
     0
340
55
144
0.18
309
CONTENTFORMAT_END
171
     0
 94
        0
309
TABLEFORMAT_END
  1
CELLSTYLE_BEGIN
 90
        3
 91
        2
300
_DATA
309
CELLSTYLE_END
  0
ENDSEC
  0
EOF
